<svg width="64" height="49" viewBox="0 0 64 49" fill="none" xmlns="http://www.w3.org/2000/svg">
<path d="M31.7405 42.1449C61.9111 42.211 61.9356 31.1365 61.9998 2.06598" stroke="black" stroke-width="4" stroke-linecap="round"/>
<path d="M33.209 6.05808C2.08866 5.98989 2.06418 17.0644 1.99993 46.1349" stroke="black" stroke-width="4" stroke-linecap="round"/>
<circle cx="33.1625" cy="23.9899" r="20" fill="black"/>
<mask id="mask0_443_333" style="mask-type:alpha" maskUnits="userSpaceOnUse" x="13" y="3" width="41" height="41">
<circle cx="33.1625" cy="23.9899" r="20" fill="#2F7889"/>
</mask>
<g mask="url(#mask0_443_333)">
<path d="M27.7578 37.6212C28.5029 35.8229 30.4229 21.9136 30.4524 19.6411C30.4887 16.9276 30.34 14.3994 25.44 12.5045C21.1355 10.8365 17.1766 9.86662 12.6976 13.0277C9.28124 15.4384 7.77123 33.5926 8.62541 35.6272C8.93836 36.3758 10.0075 37.128 11.3505 37.8191C11.1352 40.0853 10.8667 43.1992 10.9131 44.2478C10.9131 44.2478 16.3391 46.0931 17.5499 46.4324C19.591 47.0025 20.4857 45.362 20.7478 43.6015C20.8549 42.8798 20.9338 41.951 20.994 41.1029C23.303 41.4863 24.7594 41.1784 25.7952 40.3957C26.7171 39.6998 27.3313 38.6538 27.7578 37.6212V37.6212Z" fill="#66CCC1"/>
<path d="M22.437 38.712C19.6057 37.8127 18.5284 36.9784 18.0161 35.9136C17.8271 35.5198 17.8122 35.0658 18.0359 34.6924C18.7808 33.4441 19.263 32.7194 19.6102 30.3334L21.4946 18.687C22.4297 13.836 18.994 11.7392 15.2547 12.1466C12.7037 12.4257 10.7989 14.071 10.2423 16.8913L7.75785 32.2373C7.44706 34.1542 7.76576 35.4007 8.59216 36.1899C8.8072 36.5404 9.18921 36.8854 9.68336 37.225C9.62308 38.3054 9.54255 39.8108 9.4917 41.0866C9.42152 42.8937 9.76308 43.7403 10.9144 44.2449C12.0657 44.7496 13.698 44.447 14.0212 42.5253C14.1844 41.5686 14.3409 40.4723 14.4753 39.4722C15.9361 40.0134 17.2622 40.4408 17.9221 40.6925C23.2594 42.738 25.9095 41.1051 27.1436 38.8995C27.1411 38.9052 25.5965 39.7142 22.437 38.712V38.712Z" fill="#66CCC1"/>
<path d="M13.2368 17.9407C13.4148 17.9142 13.5754 17.8192 13.6842 17.6763C13.7929 17.5333 13.8412 17.3537 13.8187 17.1759C13.7961 16.9981 13.7046 16.8363 13.5636 16.725C13.4226 16.6138 13.2434 16.562 13.0644 16.5807L10.3507 16.9252L10.1125 18.3375L13.2368 17.9407ZM13.2936 20.5448C13.2707 20.3645 13.1768 20.2007 13.0326 20.0894C12.8883 19.9781 12.7056 19.9285 12.5244 19.9515L9.77859 20.2989L9.54041 21.7113L12.6969 21.3115C13.0712 21.2638 13.3398 20.9203 13.2936 20.5448ZM12.7524 23.9184C12.7295 23.7381 12.6356 23.5743 12.4914 23.463C12.3471 23.3518 12.1644 23.3022 11.9832 23.3251L9.20808 23.6768L8.9699 25.0891L12.1557 24.6851C12.5312 24.6345 12.7999 24.2911 12.7524 23.9184V23.9184ZM12.2125 27.2892C12.1896 27.1089 12.0957 26.9451 11.9514 26.8338C11.8072 26.7225 11.6244 26.6729 11.4433 26.6959L8.63883 27.0518L8.40065 28.4642L11.6157 28.0559C11.9929 28.0094 12.2587 27.6647 12.2125 27.2892V27.2892ZM11.6725 30.66C11.6496 30.4796 11.5557 30.3158 11.4115 30.2046C11.2672 30.0933 11.0845 30.0437 10.9033 30.0667L8.06958 30.4268L7.8314 31.8392L11.0786 31.4279C11.4529 31.3802 11.7187 31.0355 11.6725 30.66V30.66Z" fill="black"/>
<path d="M21.5604 15.9454C20.0797 15.8362 16.6722 16.3616 16.6722 16.3616C16.491 16.3846 16.3264 16.4783 16.2145 16.6221C16.1026 16.7659 16.0526 16.948 16.0754 17.1283C16.0988 17.3084 16.1928 17.4719 16.3369 17.5831C16.481 17.6943 16.6635 17.7441 16.8446 17.7216C16.8446 17.7216 20.1126 17.1009 21.6057 17.4068C22.734 17.6383 25.1583 18.636 25.1583 18.636L25.3593 17.2688C25.3577 17.2647 22.2584 15.9951 21.5604 15.9454ZM21.0866 19.492C19.6074 19.3561 16.1939 19.8175 16.1939 19.8175C16.1041 19.827 16.0171 19.8541 15.9378 19.8972C15.8585 19.9403 15.7885 19.9987 15.732 20.0688C15.6754 20.139 15.6333 20.2196 15.6082 20.306C15.583 20.3924 15.5752 20.4829 15.5854 20.5722C15.6128 20.8199 15.7701 21.0221 15.98 21.1209C16.0878 21.1716 16.2154 21.1933 16.3412 21.1802C16.3412 21.1802 19.6193 20.6219 21.105 20.952C22.2286 21.2019 24.6596 22.1922 24.6596 22.1922L24.8861 20.8294C24.8861 20.8294 21.7852 19.5557 21.0866 19.492V19.492ZM20.6156 23.0399C19.1379 22.8774 15.7186 23.2747 15.7186 23.2747C15.537 23.2916 15.3694 23.3793 15.2524 23.5187C15.1354 23.6582 15.0784 23.838 15.094 24.0189C15.1109 24.1997 15.1989 24.3664 15.3387 24.4827C15.4786 24.599 15.659 24.6556 15.8407 24.64C15.8407 24.64 19.1272 24.1401 20.606 24.5013C21.7265 24.7737 24.1625 25.7526 24.1625 25.7526L24.4146 24.3941C24.4146 24.3941 21.3121 23.1163 20.6156 23.0399V23.0399ZM20.1446 26.5878C18.6726 26.397 15.2432 26.7318 15.2432 26.7318C15.1532 26.7382 15.0652 26.7622 14.9845 26.8025C14.9037 26.8428 14.8317 26.8985 14.7726 26.9666C14.7134 27.0346 14.6684 27.1136 14.6399 27.1989C14.6115 27.2843 14.6003 27.3744 14.6069 27.4641C14.6231 27.7138 14.775 27.9204 14.9812 28.0278C15.0877 28.0814 15.2127 28.1088 15.3401 28.0998C15.3401 28.0998 18.6338 27.6611 20.1083 28.0477C21.2227 28.3414 23.6696 29.3114 23.6696 29.3114L23.9471 27.9572C23.9443 27.956 20.8389 26.6769 20.1446 26.5878ZM19.6737 30.1357C18.2032 29.9182 14.7666 30.1918 14.7666 30.1918C14.6762 30.1966 14.5876 30.219 14.5059 30.2578C14.4242 30.2967 14.3509 30.3512 14.2903 30.4183C14.2297 30.4853 14.183 30.5636 14.1528 30.6486C14.1226 30.7336 14.1095 30.8237 14.1143 30.9137C14.1277 31.1621 14.2742 31.3732 14.479 31.4835C14.5843 31.5399 14.7081 31.5702 14.8384 31.5624C14.8384 31.5624 18.1434 31.1833 19.6093 31.5969C20.719 31.9091 23.1725 32.8717 23.1725 32.8717L23.4727 31.5207C23.4727 31.5207 20.3657 30.2375 19.6737 30.1357V30.1357ZM30.4568 19.4996L28.4614 18.625L28.2575 19.9909L30.362 20.9133C30.4149 20.5231 30.4343 19.6742 30.4568 19.4996ZM27.7633 23.5525L29.9522 24.5631C30.0175 24.0828 30.0673 23.6298 30.1207 23.192L27.9726 22.1822L27.7633 23.5525V23.5525ZM27.2732 27.1126L29.4855 28.0548C29.5531 27.5926 29.6106 27.1532 29.6745 26.6995L27.4838 25.7393L27.2732 27.1126ZM26.7803 30.6713L28.9509 31.6227C29.0233 31.1727 29.0909 30.7105 29.164 30.2437L26.9934 29.2924L26.7803 30.6713ZM26.2861 34.233L28.3476 35.1365C28.4255 34.7129 28.5116 34.2553 28.5948 33.7656L26.5017 32.8483L26.2861 34.233ZM23.3337 14.8369C23.0331 14.0527 23.2634 13.4089 22.408 12.3678C21.4598 11.211 19.8884 11.0278 19.8884 11.0278C19.8884 11.0278 22.5424 11.1355 23.5444 12.0392C24.3949 12.8049 24.6417 13.8422 24.6003 14.5859C24.5741 15.0629 24.3479 15.2951 23.9684 15.3235C23.8509 15.3335 23.4916 15.2545 23.3337 14.8369ZM25.8736 14.4436C25.833 12.6699 24.4307 12.1202 24.4307 12.1202C24.4307 12.1202 25.9595 12.5546 26.4644 13.1175C27.0361 13.7541 27.2109 14.2884 27.1473 15.2137C27.1206 15.5914 26.949 16.1413 26.3415 15.9571C25.8111 15.7998 25.8853 14.9202 25.8736 14.4436V14.4436ZM28.183 15.3601C28.1601 13.7787 26.8909 13.1609 26.8909 13.1609C26.8909 13.1609 29.3645 14.1016 29.2957 16.2305C29.283 16.6075 29.0782 16.9925 28.7197 16.873C28.1814 16.6951 28.1919 15.8355 28.183 15.3601V15.3601ZM14.4402 39.4739C15.2992 39.4233 16.1208 39.0934 16.8749 38.6758C17.7181 38.2118 18.285 37.8761 18.9074 37.1445C19.3807 36.5868 19.9121 35.542 20.1384 34.8453C20.3878 34.0732 20.6377 33.7182 21.233 33.8834C21.5991 33.9858 21.9071 34.4283 21.6145 35.3829C21.2818 36.4669 20.9281 37.0874 20.0358 38.0183C19.2464 38.8406 18.3407 39.2909 17.2533 39.6171C15.7782 40.0603 14.5677 39.4648 14.4402 39.4739ZM17.9208 40.6954C17.9208 40.6954 21.8671 40.2386 22.9942 36.5718C23.197 35.9126 23.4076 34.6555 24.2246 34.9008C24.5881 35.0089 24.9828 35.5884 24.3952 37.0389C23.162 40.0785 21.0332 40.7511 20.2067 40.891C19.0495 41.0807 17.9208 40.6954 17.9208 40.6954V40.6954Z" fill="black"/>
<path d="M20.9595 41.5524C20.9595 41.5524 22.8185 41.2877 24.0445 40.0213C24.6617 39.3865 25.0948 38.8112 25.5792 37.6092C25.835 36.9698 25.8813 35.627 26.6689 35.9619C27.3174 36.2394 27.0731 37.3792 26.8535 37.9832C26.422 39.1742 25.4984 40.0983 24.3532 40.8569C22.813 41.8728 20.9595 41.5524 20.9595 41.5524V41.5524Z" fill="black"/>
<path d="M16.0754 17.1284C16.0988 17.3085 16.1928 17.472 16.3369 17.5832C16.4811 17.6943 16.6636 17.7441 16.8446 17.7217C16.8446 17.7217 20.1126 17.101 21.6057 17.4069C21.6184 17.4091 21.6369 17.4138 21.6497 17.4159C21.669 16.8847 21.6285 16.3955 21.5366 15.9452C20.0421 15.8437 16.6722 16.3617 16.6722 16.3617C16.5824 16.3728 16.4956 16.4014 16.4169 16.446C16.3383 16.4906 16.2692 16.5503 16.2137 16.6215C16.1583 16.6928 16.1175 16.7743 16.0938 16.8613C16.07 16.9483 16.0638 17.039 16.0754 17.1284ZM16.194 19.8176C16.1041 19.8271 16.0171 19.8541 15.9378 19.8973C15.8585 19.9404 15.7886 19.9987 15.732 20.0689C15.6754 20.1391 15.6333 20.2197 15.6082 20.306C15.583 20.3924 15.5753 20.4829 15.5854 20.5723C15.6128 20.82 15.7701 21.0222 15.98 21.121C16.0879 21.1717 16.2154 21.1934 16.3412 21.1802C16.3412 21.1802 19.6164 20.6207 21.1051 20.9521C21.1149 20.953 21.1236 20.9567 21.1306 20.9564L21.3614 19.5374C21.2492 19.5121 21.157 19.4957 21.0879 19.4893C19.6074 19.3562 16.194 19.8176 16.194 19.8176V19.8176ZM15.7186 23.2747C15.537 23.2916 15.3694 23.3794 15.2524 23.5188C15.1354 23.6583 15.0785 23.8381 15.0941 24.019C15.111 24.1998 15.1989 24.3665 15.3388 24.4828C15.4786 24.5991 15.659 24.6556 15.8407 24.64C15.8407 24.64 19.0603 24.1518 20.5592 24.491L20.79 23.072C20.7218 23.0558 20.6638 23.0474 20.6185 23.0413C19.1392 22.8746 15.7186 23.2747 15.7186 23.2747V23.2747ZM15.2433 26.7319C15.1532 26.7383 15.0652 26.7623 14.9845 26.8026C14.9037 26.8429 14.8317 26.8986 14.7726 26.9666C14.7135 27.0347 14.6684 27.1136 14.64 27.199C14.6115 27.2844 14.6003 27.3745 14.6069 27.4642C14.6232 27.7138 14.7751 27.9205 14.9812 28.0279C15.0878 28.0814 15.2127 28.1089 15.3402 28.0998C15.3402 28.0998 18.465 27.6862 19.9891 28.0228L20.2183 26.5997C20.1928 26.5953 20.1673 26.591 20.1447 26.5879C18.6726 26.3971 15.2433 26.7319 15.2433 26.7319V26.7319ZM19.6453 30.1302C18.1611 29.9204 14.7679 30.189 14.7679 30.189C14.6775 30.1938 14.5889 30.2162 14.5072 30.2551C14.4254 30.2939 14.3522 30.3484 14.2916 30.4155C14.231 30.4825 14.1843 30.5608 14.1541 30.6458C14.1239 30.7308 14.1108 30.8209 14.1156 30.9109C14.129 31.1593 14.2755 31.3704 14.4803 31.4807C14.5856 31.5371 14.7093 31.5674 14.8397 31.5596C14.8397 31.5596 17.7395 31.2284 19.3121 31.5248C19.421 31.1319 19.5213 30.7352 19.6159 30.3359L19.6453 30.1302V30.1302Z" fill="black"/>
<path d="M21.3328 15.6543C20.9187 13.857 20.2933 13.9143 19.7411 13.3033C19.2541 12.7619 19.7347 12.5592 20.0807 12.5366C20.5793 12.5023 21.3548 12.8183 21.742 13.3296C22.1052 13.8099 22.5163 14.2907 22.201 15.5907C22.0762 16.1202 21.4231 16.0389 21.3328 15.6543V15.6543ZM22.7849 18.5761C22.8447 17.9225 22.4798 17.5542 21.8665 17.4836C21.5825 17.4513 21.4613 17.6168 21.3981 18.2006C21.2823 19.2669 21.2471 19.5863 21.833 19.6723C22.3313 19.7472 22.7189 19.3056 22.7849 18.5761ZM21.5317 21.057C21.1265 20.9887 20.9535 21.1315 20.8782 21.8125C20.7904 22.6144 21.2425 22.6929 21.4458 22.7137C21.7579 22.7446 22.133 22.5401 22.2681 22.0493C22.3394 21.7799 22.4128 21.204 21.5317 21.057V21.057Z" fill="black"/>
<path d="M14.4402 39.4738C14.4514 39.4719 14.4727 39.4778 14.4968 39.485C14.4854 39.48 14.4739 39.4749 14.4612 39.4728C14.4555 39.4703 14.4501 39.4747 14.4402 39.4738Z" fill="black"/>
<path d="M20.0386 38.0196C20.0962 37.9594 20.1441 37.9053 20.1975 37.8467C19.6851 37.5948 19.2823 37.3431 18.9592 37.0819L18.9103 37.1458C18.2867 37.8803 17.721 38.2131 16.8777 38.677C16.129 39.0902 15.3157 39.4169 14.4641 39.4741C14.4756 39.4792 14.4871 39.4842 14.4999 39.4864C14.7747 39.5624 15.9043 40.0233 17.2562 39.6184C18.3435 39.2921 19.2492 38.8419 20.0386 38.0196V38.0196ZM23.2957 38.9484C23.0228 38.8834 22.7409 38.8077 22.4399 38.7133C22.26 38.655 22.0887 38.6004 21.9229 38.5414C20.3313 40.4162 17.9208 40.6954 17.9208 40.6954C17.9208 40.6954 19.0495 41.0808 20.208 40.8882C20.8198 40.784 22.1453 40.3845 23.2957 38.9484V38.9484Z" fill="black"/>
<path d="M20.9595 41.5523C20.9595 41.5523 21.1989 41.5923 21.5702 41.5979C21.3952 41.5827 21.2173 41.5662 21.0334 41.5403C20.9859 41.5468 20.9595 41.5523 20.9595 41.5523V41.5523Z" fill="black"/>
<path d="M24.3503 40.8556C25.0883 40.3661 25.7331 39.8083 26.2157 39.1521C25.8418 39.2069 25.354 39.2322 24.7516 39.1834C24.5357 39.4851 24.3095 39.748 24.0458 40.0184C22.9602 41.138 21.3828 41.4714 21.0346 41.5375C21.2186 41.5635 21.3964 41.5799 21.5714 41.5951C22.2425 41.6126 23.3604 41.5115 24.3503 40.8556Z" fill="black"/>
</g>
</svg>
