<svg width="100" height="100" viewBox="0 0 100 100" fill="none" xmlns="http://www.w3.org/2000/svg">
<path d="M40.1375 85.6904L10.5832 55.6711C6.91401 51.9441 6.91401 45.9625 10.5832 42.2355L40.1375 12.216C46.1476 6.11112 56.5363 10.367 56.5363 18.9338V78.9726C56.5365 87.5394 46.1478 91.7953 40.1375 85.6904V85.6904Z" fill="#66CCC1"/>
<path d="M24.6957 70.1257H7.14331C4.04956 70.1257 1.51831 67.5944 1.51831 64.5007V33.4058C1.51831 30.312 4.04956 27.7808 7.14331 27.7808H24.6958V70.1257H24.6957Z" fill="white"/>
<path d="M71.2533 72.1409C70.4064 72.1409 69.5777 71.721 69.0902 70.953C68.3328 69.7596 68.6859 68.1782 69.8793 67.4204C74.9346 64.2114 78.5431 58.7315 79.5322 52.7622C80.8974 44.5219 77.0521 35.9139 69.9635 31.3421C68.7756 30.5758 68.4338 28.9921 69.2 27.8042C69.9658 26.6161 71.5496 26.2739 72.7381 27.0405C81.5162 32.702 86.276 43.3751 84.582 53.5987C83.3586 60.9821 78.8879 67.7647 72.6228 71.7419C72.2136 72.0025 71.7385 72.141 71.2533 72.1409V72.1409ZM81.0726 79.1973C89.4271 73.894 95.389 64.8483 97.0207 55.0001C99.2793 41.368 92.9312 27.1358 81.2246 19.5856C80.0361 18.819 78.4523 19.1612 77.6865 20.3493C76.9203 21.5372 77.2621 23.1212 78.45 23.8872C88.4672 30.3477 93.9006 42.5149 91.9709 54.1635C90.5734 62.5977 85.4736 70.3409 78.3291 74.876C77.1359 75.6335 76.7826 77.2151 77.54 78.4087C77.72 78.6926 77.9542 78.9383 78.2292 79.1317C78.5042 79.325 78.8147 79.4623 79.1428 79.5355C79.4709 79.6088 79.8102 79.6166 80.1414 79.5586C80.4725 79.5005 80.789 79.3778 81.0726 79.1973V79.1973ZM65.498 61.6481C68.9853 59.4339 71.3756 55.8091 72.0558 51.7028C72.9851 46.0932 70.376 40.2387 65.5631 37.1348C64.3754 36.3688 62.7912 36.7106 62.0252 37.8985C61.259 39.0864 61.6008 40.6704 62.7889 41.4366C65.9117 43.4507 67.6066 47.2401 67.006 50.8661C66.5699 53.4981 64.9805 55.9132 62.7545 57.3266C61.5611 58.0842 61.208 59.6661 61.9654 60.8592C62.1965 61.2237 62.516 61.5237 62.8942 61.7314C63.2724 61.9391 63.697 62.0477 64.1285 62.0471C64.6137 62.0471 65.0888 61.9087 65.498 61.6481Z" fill="#66CCC1"/>
</svg>
