<svg width="222" height="60" viewBox="0 0 222 60" fill="none" xmlns="http://www.w3.org/2000/svg">
<path d="M15 33.75C13.6739 33.75 12.4021 34.2768 11.4645 35.2145C10.5268 36.1522 10 37.424 10 38.75V43.75C10 45.0761 10.5268 46.3479 11.4645 47.2856C12.4021 48.2233 13.6739 48.75 15 48.75H30C31.3261 48.75 32.5979 48.2233 33.5355 47.2856C34.4732 46.3479 35 45.0761 35 43.75V38.75C35 37.424 34.4732 36.1522 33.5355 35.2145C32.5979 34.2768 31.3261 33.75 30 33.75H15ZM39.245 34.9325L43.965 30.215C44.9025 29.2773 46.174 28.7503 47.5 28.75H48.965C50.2911 28.75 51.5629 29.2768 52.5005 30.2145C53.4382 31.1522 53.965 32.424 53.965 33.75V48.75C53.965 50.0761 53.4382 51.3479 52.5005 52.2856C51.5629 53.2233 50.2911 53.75 48.965 53.75H47.5C46.174 53.7498 44.9025 53.2228 43.965 52.285L39.245 47.5675C38.4889 49.3973 37.2068 50.9616 35.561 52.0622C33.9152 53.1628 31.9799 53.7502 30 53.75H15C12.3478 53.75 9.8043 52.6965 7.92893 50.8211C6.05357 48.9457 5 46.4022 5 43.75V38.75C5 36.0979 6.05357 33.5543 7.92893 31.679C9.8043 29.8036 12.3478 28.75 15 28.75H30C31.9799 28.7499 33.9152 29.3373 35.561 30.4379C37.2068 31.5385 38.4889 33.1028 39.245 34.9325V34.9325ZM47.5 48.75H48.965V33.75H47.5L40 41.25L47.5 48.75ZM28.1475 12.1975C29.7478 10.5359 31.8203 9.40647 34.084 8.96222C36.3478 8.51797 38.6934 8.7804 40.803 9.71395C42.9126 10.6475 44.6843 12.207 45.8778 14.1812C47.0713 16.1554 47.6291 18.4488 47.4755 20.7506C47.3219 23.0525 46.4644 25.2514 45.0192 27.0495C43.5739 28.8477 41.6108 30.158 39.3959 30.803C37.1809 31.448 34.8213 31.3965 32.6366 30.6554C30.4519 29.9143 28.5479 28.5195 27.1825 26.66C25.5056 28.7123 23.2197 30.1785 20.6551 30.8468C18.0905 31.5151 15.3799 31.351 12.9146 30.3781C10.4493 29.4053 8.35709 27.6741 6.93999 25.4345C5.52288 23.1949 4.85428 20.5629 5.03072 17.9185C5.20717 15.2742 6.21953 12.7543 7.92161 10.7228C9.6237 8.69138 11.9274 7.25349 14.5001 6.6168C17.0727 5.98012 19.7811 6.17759 22.2342 7.18071C24.6873 8.18384 26.7581 9.94068 28.1475 12.1975V12.1975ZM17.5 46.25C16.837 46.25 16.2011 45.9866 15.7322 45.5178C15.2634 45.049 15 44.4131 15 43.75C15 43.087 15.2634 42.4511 15.7322 41.9823C16.2011 41.5134 16.837 41.25 17.5 41.25C18.163 41.25 18.7989 41.5134 19.2678 41.9823C19.7366 42.4511 20 43.087 20 43.75C20 44.4131 19.7366 45.049 19.2678 45.5178C18.7989 45.9866 18.163 46.25 17.5 46.25ZM17.5 26.25C19.4891 26.25 21.3968 25.4599 22.8033 24.0533C24.2098 22.6468 25 20.7392 25 18.75C25 16.7609 24.2098 14.8533 22.8033 13.4467C21.3968 12.0402 19.4891 11.25 17.5 11.25C15.5109 11.25 13.6032 12.0402 12.1967 13.4467C10.7902 14.8533 10 16.7609 10 18.75C10 20.7392 10.7902 22.6468 12.1967 24.0533C13.6032 25.4599 15.5109 26.25 17.5 26.25V26.25ZM36.25 26.25C37.9076 26.25 39.4973 25.5916 40.6694 24.4195C41.8415 23.2474 42.5 21.6576 42.5 20C42.5 18.3424 41.8415 16.7527 40.6694 15.5806C39.4973 14.4085 37.9076 13.75 36.25 13.75C34.5924 13.75 33.0027 14.4085 31.8306 15.5806C30.6585 16.7527 30 18.3424 30 20C30 21.6576 30.6585 23.2474 31.8306 24.4195C33.0027 25.5916 34.5924 26.25 36.25 26.25V26.25Z" fill="white"/>
<path d="M77.04 52V30.82H81.75V52H77.04ZM90.15 52V30.82H94.89V52H90.15ZM79.86 43.15V39.07H91.71V43.15H79.86ZM104.624 52.3C103.284 52.3 102.084 51.97 101.024 51.31C99.9841 50.65 99.1541 49.75 98.5341 48.61C97.9341 47.47 97.6341 46.17 97.6341 44.71C97.6341 43.25 97.9341 41.95 98.5341 40.81C99.1541 39.67 99.9841 38.77 101.024 38.11C102.084 37.45 103.284 37.12 104.624 37.12C105.604 37.12 106.484 37.31 107.264 37.69C108.064 38.07 108.714 38.6 109.214 39.28C109.714 39.94 109.994 40.7 110.054 41.56V47.86C109.994 48.72 109.714 49.49 109.214 50.17C108.734 50.83 108.094 51.35 107.294 51.73C106.494 52.11 105.604 52.3 104.624 52.3ZM105.554 48.16C106.534 48.16 107.324 47.84 107.924 47.2C108.524 46.54 108.824 45.71 108.824 44.71C108.824 44.03 108.684 43.43 108.404 42.91C108.144 42.39 107.764 41.99 107.264 41.71C106.784 41.41 106.224 41.26 105.584 41.26C104.944 41.26 104.374 41.41 103.874 41.71C103.394 41.99 103.004 42.39 102.704 42.91C102.424 43.43 102.284 44.03 102.284 44.71C102.284 45.37 102.424 45.96 102.704 46.48C102.984 47 103.374 47.41 103.874 47.71C104.374 48.01 104.934 48.16 105.554 48.16ZM108.644 52V48.07L109.334 44.53L108.644 40.99V37.42H113.144V52H108.644ZM116.376 52V30.22H120.966V52H116.376ZM124.198 52V37.42H128.788V52H124.198ZM133.528 52V43.48C133.528 42.74 133.298 42.17 132.838 41.77C132.398 41.35 131.848 41.14 131.188 41.14C130.728 41.14 130.318 41.24 129.958 41.44C129.598 41.62 129.308 41.88 129.088 42.22C128.888 42.56 128.788 42.98 128.788 43.48L127.018 42.7C127.018 41.54 127.268 40.55 127.768 39.73C128.268 38.89 128.948 38.25 129.808 37.81C130.668 37.35 131.638 37.12 132.718 37.12C133.738 37.12 134.648 37.35 135.448 37.81C136.268 38.27 136.918 38.91 137.398 39.73C137.878 40.55 138.118 41.53 138.118 42.67V52H133.528ZM142.858 52V43.48C142.858 42.74 142.628 42.17 142.168 41.77C141.728 41.35 141.178 41.14 140.518 41.14C140.058 41.14 139.648 41.24 139.288 41.44C138.928 41.62 138.638 41.88 138.418 42.22C138.218 42.56 138.118 42.98 138.118 43.48L135.478 43.12C135.518 41.88 135.808 40.82 136.348 39.94C136.908 39.04 137.638 38.35 138.538 37.87C139.458 37.37 140.488 37.12 141.628 37.12C142.748 37.12 143.738 37.36 144.598 37.84C145.478 38.3 146.168 38.97 146.668 39.85C147.188 40.71 147.448 41.75 147.448 42.97V52H142.858ZM150.39 52V37.42H154.98V52H150.39ZM152.7 35.41C151.98 35.41 151.38 35.17 150.9 34.69C150.44 34.19 150.21 33.59 150.21 32.89C150.21 32.17 150.44 31.57 150.9 31.09C151.38 30.61 151.98 30.37 152.7 30.37C153.42 30.37 154.01 30.61 154.47 31.09C154.93 31.57 155.16 32.17 155.16 32.89C155.16 33.59 154.93 34.19 154.47 34.69C154.01 35.17 153.42 35.41 152.7 35.41ZM161.905 52L170.305 30.82H174.565L182.875 52H177.895L171.535 34.42H173.245L166.795 52H161.905ZM166.675 48.16V44.32H178.225V48.16H166.675ZM184.931 52V37.42H189.521V52H184.931ZM189.521 43.99L187.601 42.49C187.981 40.79 188.621 39.47 189.521 38.53C190.421 37.59 191.671 37.12 193.271 37.12C193.971 37.12 194.581 37.23 195.101 37.45C195.641 37.65 196.111 37.97 196.511 38.41L193.781 41.86C193.581 41.64 193.331 41.47 193.031 41.35C192.731 41.23 192.391 41.17 192.011 41.17C191.251 41.17 190.641 41.41 190.181 41.89C189.741 42.35 189.521 43.05 189.521 43.99ZM199.95 52V31.39H204.54V52H199.95ZM196.65 41.32V37.42H207.84V41.32H196.65ZM214.879 52.36C214.019 52.36 213.169 52.25 212.329 52.03C211.509 51.81 210.739 51.5 210.019 51.1C209.319 50.68 208.719 50.2 208.219 49.66L210.829 47.02C211.309 47.54 211.879 47.95 212.539 48.25C213.199 48.53 213.919 48.67 214.699 48.67C215.239 48.67 215.649 48.59 215.929 48.43C216.229 48.27 216.379 48.05 216.379 47.77C216.379 47.41 216.199 47.14 215.839 46.96C215.499 46.76 215.059 46.59 214.519 46.45C213.979 46.29 213.409 46.12 212.809 45.94C212.209 45.76 211.639 45.51 211.099 45.19C210.559 44.87 210.119 44.43 209.779 43.87C209.439 43.29 209.269 42.56 209.269 41.68C209.269 40.74 209.509 39.93 209.989 39.25C210.469 38.55 211.149 38 212.029 37.6C212.909 37.2 213.939 37 215.119 37C216.359 37 217.499 37.22 218.539 37.66C219.599 38.08 220.459 38.71 221.119 39.55L218.509 42.19C218.049 41.65 217.529 41.27 216.949 41.05C216.389 40.83 215.839 40.72 215.299 40.72C214.779 40.72 214.389 40.8 214.129 40.96C213.869 41.1 213.739 41.31 213.739 41.59C213.739 41.89 213.909 42.13 214.249 42.31C214.589 42.49 215.029 42.65 215.569 42.79C216.109 42.93 216.679 43.1 217.279 43.3C217.879 43.5 218.449 43.77 218.989 44.11C219.529 44.45 219.969 44.91 220.309 45.49C220.649 46.05 220.819 46.79 220.819 47.71C220.819 49.13 220.279 50.26 219.199 51.1C218.139 51.94 216.699 52.36 214.879 52.36Z" fill="white"/>
</svg>
