<svg width="195" height="49" viewBox="0 0 195 49" fill="none" xmlns="http://www.w3.org/2000/svg">
<path d="M31.7405 42.1449C61.9111 42.211 61.9356 31.1365 61.9998 2.06598" stroke="white" stroke-width="4" stroke-linecap="round"/>
<path d="M33.209 6.05808C2.08866 5.98989 2.06418 17.0644 1.99993 46.1349" stroke="white" stroke-width="4" stroke-linecap="round"/>
<circle cx="33.1625" cy="23.9899" r="20" fill="white"/>
<mask id="mask0_414_314" style="mask-type:alpha" maskUnits="userSpaceOnUse" x="13" y="3" width="41" height="41">
<circle cx="33.1625" cy="23.9899" r="20" fill="#2F7889"/>
</mask>
<g mask="url(#mask0_414_314)">
<path d="M27.7578 37.6212C28.5029 35.8229 30.4229 21.9136 30.4524 19.6411C30.4887 16.9276 30.34 14.3994 25.44 12.5045C21.1355 10.8365 17.1766 9.86662 12.6976 13.0277C9.28124 15.4384 7.77123 33.5926 8.62541 35.6272C8.93836 36.3758 10.0075 37.128 11.3505 37.8191C11.1352 40.0853 10.8667 43.1992 10.9131 44.2478C10.9131 44.2478 16.3391 46.0931 17.5499 46.4324C19.591 47.0025 20.4857 45.362 20.7478 43.6015C20.8549 42.8798 20.9338 41.951 20.994 41.1029C23.303 41.4863 24.7594 41.1784 25.7952 40.3957C26.7171 39.6998 27.3313 38.6538 27.7578 37.6212V37.6212Z" fill="black"/>
<path d="M22.437 38.712C19.6057 37.8127 18.5284 36.9784 18.0161 35.9136C17.8271 35.5198 17.8122 35.0658 18.0359 34.6924C18.7808 33.4441 19.263 32.7194 19.6102 30.3334L21.4946 18.687C22.4297 13.836 18.994 11.7392 15.2547 12.1466C12.7037 12.4257 10.7989 14.071 10.2423 16.8913L7.75785 32.2373C7.44706 34.1542 7.76576 35.4007 8.59216 36.1899C8.8072 36.5404 9.18921 36.8854 9.68336 37.225C9.62308 38.3054 9.54255 39.8108 9.4917 41.0866C9.42152 42.8937 9.76308 43.7403 10.9144 44.2449C12.0657 44.7496 13.698 44.447 14.0212 42.5253C14.1844 41.5686 14.3409 40.4723 14.4753 39.4722C15.9361 40.0134 17.2622 40.4408 17.9221 40.6925C23.2594 42.738 25.9095 41.1051 27.1436 38.8995C27.1411 38.9052 25.5965 39.7142 22.437 38.712V38.712Z" fill="black"/>
<path d="M13.2368 17.9407C13.4148 17.9142 13.5754 17.8192 13.6842 17.6763C13.7929 17.5333 13.8412 17.3537 13.8187 17.1759C13.7961 16.9981 13.7046 16.8363 13.5636 16.725C13.4226 16.6138 13.2434 16.562 13.0644 16.5807L10.3507 16.9252L10.1125 18.3375L13.2368 17.9407ZM13.2936 20.5448C13.2707 20.3645 13.1768 20.2007 13.0326 20.0894C12.8883 19.9781 12.7056 19.9285 12.5244 19.9515L9.77859 20.2989L9.54041 21.7113L12.6969 21.3115C13.0712 21.2638 13.3398 20.9203 13.2936 20.5448ZM12.7524 23.9184C12.7295 23.7381 12.6356 23.5743 12.4914 23.463C12.3471 23.3518 12.1644 23.3022 11.9832 23.3251L9.20808 23.6768L8.9699 25.0891L12.1557 24.6851C12.5312 24.6345 12.7999 24.2911 12.7524 23.9184V23.9184ZM12.2125 27.2892C12.1896 27.1089 12.0957 26.9451 11.9514 26.8338C11.8072 26.7225 11.6244 26.6729 11.4433 26.6959L8.63883 27.0518L8.40065 28.4642L11.6157 28.0559C11.9929 28.0094 12.2587 27.6647 12.2125 27.2892V27.2892ZM11.6725 30.66C11.6496 30.4796 11.5557 30.3158 11.4115 30.2046C11.2672 30.0933 11.0845 30.0437 10.9033 30.0667L8.06958 30.4268L7.8314 31.8392L11.0786 31.4279C11.4529 31.3802 11.7187 31.0355 11.6725 30.66V30.66Z" fill="white"/>
<path d="M21.5604 15.9454C20.0797 15.8362 16.6722 16.3616 16.6722 16.3616C16.491 16.3846 16.3264 16.4783 16.2145 16.6221C16.1026 16.7659 16.0526 16.948 16.0754 17.1283C16.0988 17.3084 16.1928 17.4719 16.3369 17.5831C16.481 17.6943 16.6635 17.7441 16.8446 17.7216C16.8446 17.7216 20.1126 17.1009 21.6057 17.4068C22.734 17.6383 25.1583 18.636 25.1583 18.636L25.3593 17.2688C25.3577 17.2647 22.2584 15.9951 21.5604 15.9454ZM21.0866 19.492C19.6074 19.3561 16.1939 19.8175 16.1939 19.8175C16.1041 19.827 16.0171 19.8541 15.9378 19.8972C15.8585 19.9403 15.7885 19.9987 15.732 20.0688C15.6754 20.139 15.6333 20.2196 15.6082 20.306C15.583 20.3924 15.5752 20.4829 15.5854 20.5722C15.6128 20.8199 15.7701 21.0221 15.98 21.1209C16.0878 21.1716 16.2154 21.1933 16.3412 21.1802C16.3412 21.1802 19.6193 20.6219 21.105 20.952C22.2286 21.2019 24.6596 22.1922 24.6596 22.1922L24.8861 20.8294C24.8861 20.8294 21.7852 19.5557 21.0866 19.492V19.492ZM20.6156 23.0399C19.1379 22.8774 15.7186 23.2747 15.7186 23.2747C15.537 23.2916 15.3694 23.3793 15.2524 23.5187C15.1354 23.6582 15.0784 23.838 15.094 24.0189C15.1109 24.1997 15.1989 24.3664 15.3387 24.4827C15.4786 24.599 15.659 24.6556 15.8407 24.64C15.8407 24.64 19.1272 24.1401 20.606 24.5013C21.7265 24.7737 24.1625 25.7526 24.1625 25.7526L24.4146 24.3941C24.4146 24.3941 21.3121 23.1163 20.6156 23.0399V23.0399ZM20.1446 26.5878C18.6726 26.397 15.2432 26.7318 15.2432 26.7318C15.1532 26.7382 15.0652 26.7622 14.9845 26.8025C14.9037 26.8428 14.8317 26.8985 14.7726 26.9666C14.7134 27.0346 14.6684 27.1136 14.6399 27.1989C14.6115 27.2843 14.6003 27.3744 14.6069 27.4641C14.6231 27.7138 14.775 27.9204 14.9812 28.0278C15.0877 28.0814 15.2127 28.1088 15.3401 28.0998C15.3401 28.0998 18.6338 27.6611 20.1083 28.0477C21.2227 28.3414 23.6696 29.3114 23.6696 29.3114L23.9471 27.9572C23.9443 27.956 20.8389 26.6769 20.1446 26.5878ZM19.6737 30.1357C18.2032 29.9182 14.7666 30.1918 14.7666 30.1918C14.6762 30.1966 14.5876 30.219 14.5059 30.2578C14.4242 30.2967 14.3509 30.3512 14.2903 30.4183C14.2297 30.4853 14.183 30.5636 14.1528 30.6486C14.1226 30.7336 14.1095 30.8237 14.1143 30.9137C14.1277 31.1621 14.2742 31.3732 14.479 31.4835C14.5843 31.5399 14.7081 31.5702 14.8384 31.5624C14.8384 31.5624 18.1434 31.1833 19.6093 31.5969C20.719 31.9091 23.1725 32.8717 23.1725 32.8717L23.4727 31.5207C23.4727 31.5207 20.3657 30.2375 19.6737 30.1357V30.1357ZM30.4568 19.4996L28.4614 18.625L28.2575 19.9909L30.362 20.9133C30.4149 20.5231 30.4343 19.6742 30.4568 19.4996ZM27.7633 23.5525L29.9522 24.5631C30.0175 24.0828 30.0673 23.6298 30.1207 23.192L27.9726 22.1822L27.7633 23.5525V23.5525ZM27.2732 27.1126L29.4855 28.0548C29.5531 27.5926 29.6106 27.1532 29.6745 26.6995L27.4838 25.7393L27.2732 27.1126ZM26.7803 30.6713L28.9509 31.6227C29.0233 31.1727 29.0909 30.7105 29.164 30.2437L26.9934 29.2924L26.7803 30.6713ZM26.2861 34.233L28.3476 35.1365C28.4255 34.7129 28.5116 34.2553 28.5948 33.7656L26.5017 32.8483L26.2861 34.233ZM23.3337 14.8369C23.0331 14.0527 23.2634 13.4089 22.408 12.3678C21.4598 11.211 19.8884 11.0278 19.8884 11.0278C19.8884 11.0278 22.5424 11.1355 23.5444 12.0392C24.3949 12.8049 24.6417 13.8422 24.6003 14.5859C24.5741 15.0629 24.3479 15.2951 23.9684 15.3235C23.8509 15.3335 23.4916 15.2545 23.3337 14.8369ZM25.8736 14.4436C25.833 12.6699 24.4307 12.1202 24.4307 12.1202C24.4307 12.1202 25.9595 12.5546 26.4644 13.1175C27.0361 13.7541 27.2109 14.2884 27.1473 15.2137C27.1206 15.5914 26.949 16.1413 26.3415 15.9571C25.8111 15.7998 25.8853 14.9202 25.8736 14.4436V14.4436ZM28.183 15.3601C28.1601 13.7787 26.8909 13.1609 26.8909 13.1609C26.8909 13.1609 29.3645 14.1016 29.2957 16.2305C29.283 16.6075 29.0782 16.9925 28.7197 16.873C28.1814 16.6951 28.1919 15.8355 28.183 15.3601V15.3601ZM14.4402 39.4739C15.2992 39.4233 16.1208 39.0934 16.8749 38.6758C17.7181 38.2118 18.285 37.8761 18.9074 37.1445C19.3807 36.5868 19.9121 35.542 20.1384 34.8453C20.3878 34.0732 20.6377 33.7182 21.233 33.8834C21.5991 33.9858 21.9071 34.4283 21.6145 35.3829C21.2818 36.4669 20.9281 37.0874 20.0358 38.0183C19.2464 38.8406 18.3407 39.2909 17.2533 39.6171C15.7782 40.0603 14.5677 39.4648 14.4402 39.4739ZM17.9208 40.6954C17.9208 40.6954 21.8671 40.2386 22.9942 36.5718C23.197 35.9126 23.4076 34.6555 24.2246 34.9008C24.5881 35.0089 24.9828 35.5884 24.3952 37.0389C23.162 40.0785 21.0332 40.7511 20.2067 40.891C19.0495 41.0807 17.9208 40.6954 17.9208 40.6954V40.6954Z" fill="white"/>
<path d="M20.9595 41.5524C20.9595 41.5524 22.8185 41.2877 24.0445 40.0213C24.6617 39.3865 25.0948 38.8112 25.5792 37.6092C25.835 36.9698 25.8813 35.627 26.6689 35.9619C27.3174 36.2394 27.0731 37.3792 26.8535 37.9832C26.422 39.1742 25.4984 40.0983 24.3532 40.8569C22.813 41.8728 20.9595 41.5524 20.9595 41.5524V41.5524Z" fill="white"/>
<path d="M16.0754 17.1284C16.0988 17.3085 16.1928 17.472 16.3369 17.5832C16.4811 17.6943 16.6636 17.7441 16.8446 17.7217C16.8446 17.7217 20.1126 17.101 21.6057 17.4069C21.6184 17.4091 21.6369 17.4138 21.6497 17.4159C21.669 16.8847 21.6285 16.3955 21.5366 15.9452C20.0421 15.8437 16.6722 16.3617 16.6722 16.3617C16.5824 16.3728 16.4956 16.4014 16.4169 16.446C16.3383 16.4906 16.2692 16.5503 16.2137 16.6215C16.1583 16.6928 16.1175 16.7743 16.0938 16.8613C16.07 16.9483 16.0638 17.039 16.0754 17.1284ZM16.194 19.8176C16.1041 19.8271 16.0171 19.8541 15.9378 19.8973C15.8585 19.9404 15.7886 19.9987 15.732 20.0689C15.6754 20.1391 15.6333 20.2197 15.6082 20.306C15.583 20.3924 15.5753 20.4829 15.5854 20.5723C15.6128 20.82 15.7701 21.0222 15.98 21.121C16.0879 21.1717 16.2154 21.1934 16.3412 21.1802C16.3412 21.1802 19.6164 20.6207 21.1051 20.9521C21.1149 20.953 21.1236 20.9567 21.1306 20.9564L21.3614 19.5374C21.2492 19.5121 21.157 19.4957 21.0879 19.4893C19.6074 19.3562 16.194 19.8176 16.194 19.8176V19.8176ZM15.7186 23.2747C15.537 23.2916 15.3694 23.3794 15.2524 23.5188C15.1354 23.6583 15.0785 23.8381 15.0941 24.019C15.111 24.1998 15.1989 24.3665 15.3388 24.4828C15.4786 24.5991 15.659 24.6556 15.8407 24.64C15.8407 24.64 19.0603 24.1518 20.5592 24.491L20.79 23.072C20.7218 23.0558 20.6638 23.0474 20.6185 23.0413C19.1392 22.8746 15.7186 23.2747 15.7186 23.2747V23.2747ZM15.2433 26.7319C15.1532 26.7383 15.0652 26.7623 14.9845 26.8026C14.9037 26.8429 14.8317 26.8986 14.7726 26.9666C14.7135 27.0347 14.6684 27.1136 14.64 27.199C14.6115 27.2844 14.6003 27.3745 14.6069 27.4642C14.6232 27.7138 14.7751 27.9205 14.9812 28.0279C15.0878 28.0814 15.2127 28.1089 15.3402 28.0998C15.3402 28.0998 18.465 27.6862 19.9891 28.0228L20.2183 26.5997C20.1928 26.5953 20.1673 26.591 20.1447 26.5879C18.6726 26.3971 15.2433 26.7319 15.2433 26.7319V26.7319ZM19.6453 30.1302C18.1611 29.9204 14.7679 30.189 14.7679 30.189C14.6775 30.1938 14.5889 30.2162 14.5072 30.2551C14.4254 30.2939 14.3522 30.3484 14.2916 30.4155C14.231 30.4825 14.1843 30.5608 14.1541 30.6458C14.1239 30.7308 14.1108 30.8209 14.1156 30.9109C14.129 31.1593 14.2755 31.3704 14.4803 31.4807C14.5856 31.5371 14.7093 31.5674 14.8397 31.5596C14.8397 31.5596 17.7395 31.2284 19.3121 31.5248C19.421 31.1319 19.5213 30.7352 19.6159 30.3359L19.6453 30.1302V30.1302Z" fill="white"/>
<path d="M21.3328 15.6543C20.9187 13.857 20.2933 13.9143 19.7411 13.3033C19.2541 12.7619 19.7347 12.5592 20.0807 12.5366C20.5793 12.5023 21.3548 12.8183 21.742 13.3296C22.1052 13.8099 22.5163 14.2907 22.201 15.5907C22.0762 16.1202 21.4231 16.0389 21.3328 15.6543V15.6543ZM22.7849 18.5761C22.8447 17.9225 22.4798 17.5542 21.8665 17.4836C21.5825 17.4513 21.4613 17.6168 21.3981 18.2006C21.2823 19.2669 21.2471 19.5863 21.833 19.6723C22.3313 19.7472 22.7189 19.3056 22.7849 18.5761ZM21.5317 21.057C21.1265 20.9887 20.9535 21.1315 20.8782 21.8125C20.7904 22.6144 21.2425 22.6929 21.4458 22.7137C21.7579 22.7446 22.133 22.5401 22.2681 22.0493C22.3394 21.7799 22.4128 21.204 21.5317 21.057V21.057Z" fill="white"/>
<path d="M14.4402 39.4738C14.4514 39.4719 14.4727 39.4778 14.4968 39.485C14.4854 39.48 14.4739 39.4749 14.4612 39.4728C14.4555 39.4703 14.4501 39.4747 14.4402 39.4738Z" fill="white"/>
<path d="M20.0386 38.0196C20.0962 37.9594 20.1441 37.9053 20.1975 37.8467C19.6851 37.5948 19.2823 37.3431 18.9592 37.0819L18.9103 37.1458C18.2867 37.8803 17.721 38.2131 16.8777 38.677C16.129 39.0902 15.3157 39.4169 14.4641 39.4741C14.4756 39.4792 14.4871 39.4842 14.4999 39.4864C14.7747 39.5624 15.9043 40.0233 17.2562 39.6184C18.3435 39.2921 19.2492 38.8419 20.0386 38.0196V38.0196ZM23.2957 38.9484C23.0228 38.8834 22.7409 38.8077 22.4399 38.7133C22.26 38.655 22.0887 38.6004 21.9229 38.5414C20.3313 40.4162 17.9208 40.6954 17.9208 40.6954C17.9208 40.6954 19.0495 41.0808 20.208 40.8882C20.8198 40.784 22.1453 40.3845 23.2957 38.9484V38.9484Z" fill="white"/>
<path d="M20.9595 41.5523C20.9595 41.5523 21.1989 41.5923 21.5702 41.5979C21.3952 41.5827 21.2173 41.5662 21.0334 41.5403C20.9859 41.5468 20.9595 41.5523 20.9595 41.5523V41.5523Z" fill="white"/>
<path d="M24.3503 40.8556C25.0883 40.3661 25.7331 39.8083 26.2157 39.1521C25.8418 39.2069 25.354 39.2322 24.7516 39.1834C24.5357 39.4851 24.3095 39.748 24.0458 40.0184C22.9602 41.138 21.3828 41.4714 21.0346 41.5375C21.2186 41.5635 21.3964 41.5799 21.5714 41.5951C22.2425 41.6126 23.3604 41.5115 24.3503 40.8556Z" fill="white"/>
</g>
<path d="M77.1599 36.7116C77.2799 35.9916 77.4099 35.2616 77.5499 34.5216C77.7099 33.7816 77.8999 32.9616 78.1199 32.0616C78.3599 31.1616 78.6499 30.1316 78.9899 28.9716C79.3499 27.8116 79.7799 26.4616 80.2799 24.9216C79.9799 24.9416 79.6499 24.9716 79.2899 25.0116C78.9499 25.0516 78.6299 25.0816 78.3299 25.1016C78.3299 24.4616 78.5699 23.9716 79.0499 23.6316C79.5299 23.2916 80.1599 23.0416 80.9399 22.8816C81.0199 22.6016 81.0899 22.3816 81.1499 22.2216C81.2099 22.0616 81.2799 21.8616 81.3599 21.6216C81.4399 21.3816 81.5599 21.0516 81.7199 20.6316C81.8799 20.1916 82.0899 19.5716 82.3499 18.7716C82.6299 17.9716 82.9899 16.9216 83.4299 15.6216C83.4699 15.5216 83.5399 15.3216 83.6399 15.0216C83.7399 14.7216 83.7899 14.4416 83.7899 14.1816C83.7899 14.0216 83.7599 13.9116 83.6999 13.8516C83.6599 13.7916 83.5599 13.7616 83.3999 13.7616C82.9999 13.7616 82.5899 13.9416 82.1699 14.3016C81.7699 14.6616 81.3999 15.1216 81.0599 15.6816C80.7199 16.2216 80.4499 16.7916 80.2499 17.3916C80.0499 17.9716 79.9499 18.4916 79.9499 18.9516C79.9499 19.1116 79.9699 19.2916 80.0099 19.4916C80.0499 19.6916 80.1299 19.9616 80.2499 20.3016C79.4099 20.3016 78.7999 20.1216 78.4199 19.7616C78.0599 19.3816 77.8799 18.9016 77.8799 18.3216C77.8799 17.6416 78.0799 16.9616 78.4799 16.2816C78.8999 15.6016 79.4299 14.9816 80.0699 14.4216C80.7299 13.8416 81.4199 13.3816 82.1399 13.0416C82.8799 12.6816 83.5599 12.5016 84.1799 12.5016C84.8199 12.5016 85.2599 12.6716 85.4999 13.0116C85.7399 13.3516 85.8599 13.7316 85.8599 14.1516C85.8599 14.3716 85.8299 14.5916 85.7699 14.8116C85.7299 15.0316 85.6799 15.2416 85.6199 15.4416L83.4299 22.6416C83.6699 22.6216 83.9099 22.6116 84.1499 22.6116C84.4099 22.6116 84.6699 22.6116 84.9299 22.6116C85.9099 22.6116 86.8299 22.6316 87.6899 22.6716C88.5499 22.7116 89.3799 22.7716 90.1799 22.8516C90.6799 21.1716 91.0999 19.7916 91.4399 18.7116C91.7999 17.6316 92.1099 16.7416 92.3699 16.0416C92.6499 15.3216 92.8999 14.6916 93.1199 14.1516C93.1999 13.9916 93.3099 13.7816 93.4499 13.5216C93.6099 13.2416 93.8299 13.0016 94.1099 12.8016C94.4099 12.5816 94.7999 12.4716 95.2799 12.4716C95.0199 13.1716 94.6999 14.1016 94.3199 15.2616C93.9599 16.4016 93.5899 17.6516 93.2099 19.0116C92.8299 20.3516 92.4699 21.6816 92.1299 23.0016C92.4099 23.0016 92.7999 23.0216 93.2999 23.0616C93.8199 23.0816 94.2999 23.0916 94.7399 23.0916C94.1199 23.7116 93.5699 24.1016 93.0899 24.2616C92.6099 24.4016 92.1699 24.4716 91.7699 24.4716C91.5499 25.3916 91.3499 26.2716 91.1699 27.1116C90.9899 27.9516 90.8399 28.7316 90.7199 29.4516C90.4799 30.7316 90.2999 31.8516 90.1799 32.8116C90.0799 33.7516 90.0299 34.5216 90.0299 35.1216C90.0299 35.4416 90.0399 35.7216 90.0599 35.9616C90.0999 36.2216 90.1399 36.4716 90.1799 36.7116C89.1599 36.6116 88.4599 36.3616 88.0799 35.9616C87.7199 35.5816 87.5399 34.9016 87.5399 33.9216C87.5399 33.4616 87.5699 32.9516 87.6299 32.3916C87.7099 31.8316 87.8399 31.1716 88.0199 30.4116C88.1799 29.6716 88.3999 28.8216 88.6799 27.8616C88.9599 26.9016 89.2999 25.7816 89.6999 24.5016C88.4799 24.5016 87.4699 24.5116 86.6699 24.5316C85.8699 24.5516 85.1699 24.5716 84.5699 24.5916C83.9699 24.6116 83.3699 24.6516 82.7699 24.7116C82.7499 24.7916 82.6999 24.9616 82.6199 25.2216C82.5399 25.4816 82.3999 25.9416 82.1999 26.6016C81.9999 27.2616 81.6999 28.2316 81.2999 29.5116C80.8999 30.7916 80.3599 32.5116 79.6799 34.6716C79.4599 35.4116 79.0799 35.9316 78.5399 36.2316C77.9999 36.5516 77.5399 36.7116 77.1599 36.7116ZM95.8986 35.5116C95.2386 35.5116 94.6686 35.2916 94.1886 34.8516C93.6886 34.4116 93.4386 33.7516 93.4386 32.8716C93.4386 32.1716 93.5986 31.4116 93.9186 30.5916C94.2386 29.7716 94.6786 28.9616 95.2386 28.1616C95.7986 27.3616 96.4386 26.6416 97.1586 26.0016C97.8786 25.3416 98.6486 24.8116 99.4686 24.4116C100.289 24.0116 101.109 23.8116 101.929 23.8116C102.789 23.8116 103.519 24.0316 104.119 24.4716C104.719 24.9116 105.019 25.4916 105.019 26.2116C105.019 26.7516 104.829 27.1416 104.449 27.3816C104.069 27.6216 103.619 27.6916 103.099 27.5916C103.139 27.4116 103.169 27.2316 103.189 27.0516C103.229 26.8716 103.249 26.6816 103.249 26.4816C103.249 26.0816 103.169 25.7216 103.009 25.4016C102.849 25.0816 102.509 24.9216 101.989 24.9216C101.429 24.9216 100.859 25.1116 100.279 25.4916C99.6986 25.8716 99.1386 26.3716 98.5986 26.9916C98.0786 27.5916 97.6086 28.2616 97.1886 29.0016C96.7686 29.7216 96.4386 30.4316 96.1986 31.1316C95.9586 31.8316 95.8386 32.4616 95.8386 33.0216C95.8386 33.6616 96.0686 33.9816 96.5286 33.9816C96.9886 33.9816 97.4986 33.7616 98.0586 33.3216C98.6186 32.8616 99.1786 32.2916 99.7386 31.6116C100.319 30.9316 100.869 30.2416 101.389 29.5416C101.909 28.8216 102.359 28.2116 102.739 27.7116C102.799 27.6116 102.879 27.5616 102.979 27.5616C103.059 27.5816 103.209 27.6316 103.429 27.7116C103.669 27.7716 103.889 27.8716 104.089 28.0116C104.289 28.1516 104.389 28.3316 104.389 28.5516C104.389 28.7516 104.299 29.0116 104.119 29.3316C103.959 29.6316 103.759 29.9716 103.519 30.3516C103.299 30.7116 103.099 31.0816 102.919 31.4616C102.759 31.8216 102.679 32.1716 102.679 32.5116C102.679 32.7716 102.749 33.0216 102.889 33.2616C103.029 33.4816 103.259 33.5916 103.579 33.5916C104.059 33.5916 104.729 33.2416 105.589 32.5416C106.469 31.8216 107.359 30.6116 108.259 28.9116L108.829 29.4816C108.349 30.5616 107.769 31.5216 107.089 32.3616C106.429 33.1816 105.729 33.8216 104.989 34.2816C104.249 34.7616 103.499 35.0016 102.739 35.0016C101.919 35.0016 101.309 34.7416 100.909 34.2216C100.509 33.7016 100.289 33.1416 100.249 32.5416C100.249 32.5016 100.249 32.4716 100.249 32.4516C100.249 32.4316 100.249 32.4116 100.249 32.3916C99.4486 33.3516 98.7086 34.1116 98.0286 34.6716C97.3686 35.2316 96.6586 35.5116 95.8986 35.5116ZM110.129 35.0016C109.189 35.0016 108.529 34.6916 108.149 34.0716C107.789 33.4316 107.609 32.6816 107.609 31.8216C107.609 30.8416 107.789 29.6916 108.149 28.3716C108.509 27.0516 108.979 25.6716 109.559 24.2316C110.159 22.7716 110.809 21.3516 111.509 19.9716C112.229 18.5716 112.949 17.3116 113.669 16.1916C114.389 15.0716 115.049 14.1816 115.649 13.5216C116.269 12.8416 116.769 12.5016 117.149 12.5016C117.409 12.5016 117.629 12.6416 117.809 12.9216C117.989 13.1816 118.129 13.5016 118.229 13.8816C118.349 14.2416 118.409 14.5816 118.409 14.9016C118.409 15.4416 118.269 16.1516 117.989 17.0316C117.729 17.8916 117.349 18.8416 116.849 19.8816C116.369 20.9216 115.789 21.9916 115.109 23.0916C114.449 24.1716 113.709 25.2016 112.889 26.1816C112.089 27.1616 111.229 28.0116 110.309 28.7316C110.229 29.2316 110.149 29.7316 110.069 30.2316C110.009 30.7116 109.979 31.1516 109.979 31.5516C109.979 32.2716 110.099 32.8016 110.339 33.1416C110.579 33.4616 110.889 33.6216 111.269 33.6216C111.769 33.6216 112.279 33.3916 112.799 32.9316C113.339 32.4516 113.849 31.8516 114.329 31.1316C114.829 30.3916 115.259 29.6316 115.619 28.8516L116.339 29.2416C115.479 31.0216 114.519 32.4316 113.459 33.4716C112.399 34.4916 111.289 35.0016 110.129 35.0016ZM110.849 26.8716C111.529 26.1316 112.169 25.3316 112.769 24.4716C113.389 23.5916 113.949 22.7016 114.449 21.8016C114.969 20.9016 115.419 20.0316 115.799 19.1916C116.179 18.3516 116.469 17.6016 116.669 16.9416C116.889 16.2616 117.009 15.7216 117.029 15.3216C117.029 15.3016 117.029 15.2916 117.029 15.2916C117.029 15.2716 117.029 15.2516 117.029 15.2316C116.869 15.2316 116.609 15.4616 116.249 15.9216C115.909 16.3616 115.499 16.9716 115.019 17.7516C114.539 18.5316 114.039 19.4216 113.519 20.4216C113.019 21.4216 112.529 22.4816 112.049 23.6016C111.589 24.7016 111.189 25.7916 110.849 26.8716ZM130.592 35.0316C129.812 35.0316 129.232 34.8016 128.852 34.3416C128.472 33.8816 128.282 33.3316 128.282 32.6916C128.282 32.2316 128.352 31.7716 128.492 31.3116C128.632 30.8516 128.772 30.4016 128.912 29.9616C129.052 29.5016 129.122 29.0916 129.122 28.7316C129.122 28.3916 129.052 28.1616 128.912 28.0416C128.792 27.9016 128.632 27.8316 128.432 27.8316C127.972 27.8316 127.432 28.1816 126.812 28.8816C126.212 29.5816 125.462 30.6016 124.562 31.9416C124.242 32.4216 123.942 32.9316 123.662 33.4716C123.382 33.9916 123.132 34.4316 122.912 34.7916C122.732 34.7916 122.492 34.7616 122.192 34.7016C121.912 34.6416 121.662 34.5516 121.442 34.4316C121.222 34.3316 121.112 34.1916 121.112 34.0116C121.112 33.8316 121.212 33.4816 121.412 32.9616C121.612 32.4416 121.842 31.8416 122.102 31.1616C122.362 30.4616 122.592 29.7816 122.792 29.1216C122.992 28.4416 123.092 27.8716 123.092 27.4116C123.092 27.1316 123.042 26.9116 122.942 26.7516C122.842 26.5916 122.682 26.5116 122.462 26.5116C122.042 26.5116 121.532 26.7616 120.932 27.2616C120.352 27.7616 119.732 28.4216 119.072 29.2416C118.432 30.0416 117.822 30.9416 117.242 31.9416C116.682 32.9216 116.222 33.9116 115.862 34.9116C115.642 34.9116 115.372 34.8616 115.052 34.7616C114.732 34.6816 114.452 34.5716 114.212 34.4316C113.972 34.3116 113.852 34.2016 113.852 34.1016C113.852 34.0816 113.922 33.8016 114.062 33.2616C114.202 32.7016 114.372 32.0116 114.572 31.1916C114.772 30.3716 114.982 29.5316 115.202 28.6716C115.422 27.8116 115.612 27.0616 115.772 26.4216C115.832 26.2016 116.052 26.0116 116.432 25.8516C116.812 25.6716 117.142 25.5816 117.422 25.5816C117.702 25.5816 117.942 25.6716 118.142 25.8516C118.342 26.0316 118.442 26.2716 118.442 26.5716C118.442 26.7716 118.402 27.0616 118.322 27.4416C118.242 27.8216 118.142 28.2516 118.022 28.7316C118.442 28.1716 118.882 27.6216 119.342 27.0816C119.822 26.5216 120.312 26.0216 120.812 25.5816C121.332 25.1416 121.842 24.7916 122.342 24.5316C122.862 24.2716 123.372 24.1416 123.872 24.1416C124.612 24.1416 125.112 24.4116 125.372 24.9516C125.632 25.4716 125.762 26.0416 125.762 26.6616C125.762 26.9216 125.742 27.1816 125.702 27.4416C125.662 27.6816 125.602 27.9316 125.522 28.1916C125.462 28.4316 125.372 28.7216 125.252 29.0616C125.632 28.5016 126.042 27.9916 126.482 27.5316C126.942 27.0516 127.432 26.6716 127.952 26.3916C128.472 26.1116 129.022 25.9716 129.602 25.9716C130.382 25.9716 130.922 26.2116 131.222 26.6916C131.522 27.1516 131.672 27.6616 131.672 28.2216C131.672 28.7416 131.582 29.2916 131.402 29.8716C131.242 30.4316 131.072 30.9716 130.892 31.4916C130.732 31.9916 130.652 32.4216 130.652 32.7816C130.652 32.9816 130.702 33.1716 130.802 33.3516C130.902 33.5116 131.102 33.5916 131.402 33.5916C131.942 33.5916 132.462 33.3416 132.962 32.8416C133.462 32.3416 133.922 31.7316 134.342 31.0116C134.782 30.2716 135.152 29.5716 135.452 28.9116L135.962 29.5416C135.642 30.3616 135.222 31.2016 134.702 32.0616C134.202 32.9016 133.612 33.6016 132.932 34.1616C132.252 34.7416 131.472 35.0316 130.592 35.0316ZM137.107 35.0016C136.227 35.0016 135.567 34.7416 135.127 34.2216C134.687 33.7016 134.467 33.0716 134.467 32.3316C134.467 31.8716 134.547 31.2916 134.707 30.5916C134.867 29.8916 135.087 29.1616 135.367 28.4016C135.667 27.6216 136.007 26.8916 136.387 26.2116C136.767 25.5316 137.177 24.9816 137.617 24.5616C138.057 24.1216 138.497 23.9016 138.937 23.9016C139.177 23.9016 139.387 23.9816 139.567 24.1416C139.747 24.2816 139.837 24.4916 139.837 24.7716C139.837 25.0316 139.677 25.4216 139.357 25.9416C139.057 26.4616 138.697 27.0616 138.277 27.7416C137.877 28.4216 137.517 29.1316 137.197 29.8716C136.897 30.5916 136.747 31.2816 136.747 31.9416C136.747 32.5816 136.857 33.0116 137.077 33.2316C137.317 33.4316 137.657 33.5316 138.097 33.5316C138.777 33.5316 139.517 33.1916 140.317 32.5116C141.117 31.8316 141.947 30.6416 142.807 28.9416L143.257 29.4216C142.557 31.1816 141.667 32.5516 140.587 33.5316C139.507 34.5116 138.347 35.0016 137.107 35.0016ZM140.647 21.4716C140.267 21.4716 139.917 21.3816 139.597 21.2016C139.297 21.0016 139.147 20.7016 139.147 20.3016C139.147 19.8216 139.407 19.4116 139.927 19.0716C140.447 18.7316 140.987 18.5616 141.547 18.5616C141.907 18.5616 142.207 18.6416 142.447 18.8016C142.707 18.9616 142.837 19.2516 142.837 19.6716C142.837 20.0916 142.607 20.5016 142.147 20.9016C141.687 21.2816 141.187 21.4716 140.647 21.4716ZM151.504 35.5116C150.844 35.5116 150.274 35.2916 149.794 34.8516C149.294 34.4116 149.044 33.7516 149.044 32.8716C149.044 32.1716 149.204 31.4116 149.524 30.5916C149.844 29.7716 150.284 28.9616 150.844 28.1616C151.404 27.3616 152.044 26.6416 152.764 26.0016C153.484 25.3416 154.254 24.8116 155.074 24.4116C155.894 24.0116 156.714 23.8116 157.534 23.8116C158.394 23.8116 159.124 24.0316 159.724 24.4716C160.324 24.9116 160.624 25.4916 160.624 26.2116C160.624 26.7516 160.434 27.1416 160.054 27.3816C159.674 27.6216 159.224 27.6916 158.704 27.5916C158.744 27.4116 158.774 27.2316 158.794 27.0516C158.834 26.8716 158.854 26.6816 158.854 26.4816C158.854 26.0816 158.774 25.7216 158.614 25.4016C158.454 25.0816 158.114 24.9216 157.594 24.9216C157.034 24.9216 156.464 25.1116 155.884 25.4916C155.304 25.8716 154.744 26.3716 154.204 26.9916C153.684 27.5916 153.214 28.2616 152.794 29.0016C152.374 29.7216 152.044 30.4316 151.804 31.1316C151.564 31.8316 151.444 32.4616 151.444 33.0216C151.444 33.6616 151.674 33.9816 152.134 33.9816C152.594 33.9816 153.104 33.7616 153.664 33.3216C154.224 32.8616 154.784 32.2916 155.344 31.6116C155.924 30.9316 156.474 30.2416 156.994 29.5416C157.514 28.8216 157.964 28.2116 158.344 27.7116C158.404 27.6116 158.484 27.5616 158.584 27.5616C158.664 27.5816 158.814 27.6316 159.034 27.7116C159.274 27.7716 159.494 27.8716 159.694 28.0116C159.894 28.1516 159.994 28.3316 159.994 28.5516C159.994 28.7516 159.904 29.0116 159.724 29.3316C159.564 29.6316 159.364 29.9716 159.124 30.3516C158.904 30.7116 158.704 31.0816 158.524 31.4616C158.364 31.8216 158.284 32.1716 158.284 32.5116C158.284 32.7716 158.354 33.0216 158.494 33.2616C158.634 33.4816 158.864 33.5916 159.184 33.5916C159.664 33.5916 160.334 33.2416 161.194 32.5416C162.074 31.8216 162.964 30.6116 163.864 28.9116L164.434 29.4816C163.954 30.5616 163.374 31.5216 162.694 32.3616C162.034 33.1816 161.334 33.8216 160.594 34.2816C159.854 34.7616 159.104 35.0016 158.344 35.0016C157.524 35.0016 156.914 34.7416 156.514 34.2216C156.114 33.7016 155.894 33.1416 155.854 32.5416C155.854 32.5016 155.854 32.4716 155.854 32.4516C155.854 32.4316 155.854 32.4116 155.854 32.3916C155.054 33.3516 154.314 34.1116 153.634 34.6716C152.974 35.2316 152.264 35.5116 151.504 35.5116ZM168.704 34.8816C167.964 34.8816 167.364 34.6816 166.904 34.2816C166.444 33.9016 166.214 33.3816 166.214 32.7216C166.214 32.1616 166.354 31.5616 166.634 30.9216C166.914 30.2816 167.194 29.6516 167.474 29.0316C167.774 28.4116 167.924 27.8616 167.924 27.3816C167.924 26.9216 167.774 26.5416 167.474 26.2416C167.174 25.9216 166.824 25.6616 166.424 25.4616C165.984 26.5616 165.484 27.6316 164.924 28.6716C164.384 29.6916 163.944 30.4916 163.604 31.0716L163.154 30.2016C163.434 29.6816 163.804 28.9416 164.264 27.9816C164.724 27.0216 165.164 25.9516 165.584 24.7716C165.384 24.5716 165.284 24.3016 165.284 23.9616C165.284 23.4416 165.444 22.9516 165.764 22.4916C166.084 22.0316 166.394 21.8016 166.694 21.8016C166.934 21.8016 167.104 21.9416 167.204 22.2216C167.324 22.4816 167.384 22.6616 167.384 22.7616C167.384 22.8616 167.334 23.0416 167.234 23.3016C167.154 23.5616 167.094 23.7516 167.054 23.8716C167.074 24.0916 167.244 24.3116 167.564 24.5316C167.904 24.7316 168.284 24.9716 168.704 25.2516C169.124 25.5316 169.494 25.8816 169.814 26.3016C170.134 26.7216 170.294 27.2516 170.294 27.8916C170.294 28.4716 170.164 29.0616 169.904 29.6616C169.644 30.2616 169.384 30.8216 169.124 31.3416C168.864 31.8616 168.734 32.3116 168.734 32.6916C168.734 32.9716 168.804 33.1616 168.944 33.2616C169.104 33.3416 169.284 33.3816 169.484 33.3816C169.964 33.3816 170.464 33.2416 170.984 32.9616C171.504 32.6616 172.014 32.2816 172.514 31.8216C173.014 31.3616 173.454 30.8816 173.834 30.3816C174.214 29.8616 174.504 29.3916 174.704 28.9716L175.424 29.5116C175.044 30.3716 174.494 31.2216 173.774 32.0616C173.054 32.8816 172.254 33.5616 171.374 34.1016C170.494 34.6216 169.604 34.8816 168.704 34.8816ZM176.783 35.4816C175.903 35.4816 175.193 35.2216 174.653 34.7016C174.113 34.1816 173.843 33.3916 173.843 32.3316C173.843 31.5116 173.993 30.4916 174.293 29.2716C174.613 28.0516 175.013 26.7916 175.493 25.4916C175.353 25.4516 175.183 25.4216 174.983 25.4016C174.803 25.3616 174.623 25.3016 174.443 25.2216V24.2916C174.763 24.3316 175.023 24.3616 175.223 24.3816C175.443 24.4016 175.663 24.4216 175.883 24.4416C176.303 23.3816 176.753 22.3616 177.233 21.3816C177.733 20.3816 178.223 19.4916 178.703 18.7116C179.203 17.9316 179.673 17.3216 180.113 16.8816C180.553 16.4216 180.943 16.1916 181.283 16.1916C181.483 16.1916 181.673 16.2716 181.853 16.4316C182.033 16.5716 182.123 16.7816 182.123 17.0616C182.123 17.4616 181.913 18.0316 181.493 18.7716C181.093 19.5116 180.593 20.3816 179.993 21.3816C179.393 22.3616 178.813 23.4116 178.253 24.5316C178.413 24.5316 178.573 24.5316 178.733 24.5316C178.893 24.5316 179.043 24.5316 179.183 24.5316C180.063 24.5316 180.853 24.5216 181.553 24.5016C182.273 24.4616 183.003 24.4016 183.743 24.3216V25.3116C182.643 25.4116 181.633 25.4916 180.713 25.5516C179.793 25.6116 178.913 25.6516 178.073 25.6716C178.013 25.6716 177.953 25.6716 177.893 25.6716C177.833 25.6716 177.773 25.6716 177.713 25.6716C177.293 26.6516 176.923 27.6616 176.603 28.7016C176.303 29.7216 176.153 30.7216 176.153 31.7016C176.153 32.5216 176.283 33.1016 176.543 33.4416C176.803 33.7816 177.213 33.9516 177.773 33.9516C178.773 33.9516 179.793 33.5016 180.833 32.6016C181.893 31.6816 182.813 30.4416 183.593 28.8816L184.013 29.1816C183.493 30.3616 182.843 31.4316 182.063 32.3916C181.303 33.3516 180.473 34.1016 179.573 34.6416C178.673 35.2016 177.743 35.4816 176.783 35.4816ZM186.205 35.6316C185.205 35.6316 184.395 35.4216 183.775 35.0016C183.175 34.6016 182.745 34.0916 182.485 33.4716C182.225 32.8316 182.095 32.1816 182.095 31.5216C182.095 30.9416 182.175 30.4916 182.335 30.1716C182.495 29.8516 182.695 29.6216 182.935 29.4816C183.175 29.3216 183.395 29.2016 183.595 29.1216C183.815 29.0416 183.975 28.9516 184.075 28.8516C184.575 28.3316 185.085 27.7316 185.605 27.0516C186.145 26.3516 186.605 25.5816 186.985 24.7416V24.4416C186.985 23.6416 187.115 23.0816 187.375 22.7616C187.655 22.4216 187.975 22.2516 188.335 22.2516C188.575 22.2516 188.745 22.3116 188.845 22.4316C188.965 22.5516 189.035 22.6916 189.055 22.8516C189.055 22.9716 189.025 23.1116 188.965 23.2716C188.925 23.4316 188.905 23.6516 188.905 23.9316C188.905 24.5316 189.045 25.2216 189.325 26.0016C189.625 26.7616 189.915 27.5716 190.195 28.4316C190.495 29.2916 190.645 30.1716 190.645 31.0716C190.645 31.3116 190.635 31.5316 190.615 31.7316C190.595 31.9316 190.565 32.1216 190.525 32.3016C191.145 32.1416 191.755 31.8016 192.355 31.2816C192.955 30.7416 193.525 29.9516 194.065 28.9116L194.425 29.1816C194.045 30.3216 193.495 31.2416 192.775 31.9416C192.055 32.6216 191.215 33.0416 190.255 33.2016C189.935 34.0216 189.405 34.6316 188.665 35.0316C187.945 35.4316 187.125 35.6316 186.205 35.6316ZM185.995 34.3116C186.395 34.3116 186.765 34.2116 187.105 34.0116C187.445 33.8116 187.715 33.5216 187.915 33.1416C187.095 32.9616 186.355 32.6416 185.695 32.1816C185.035 31.7216 184.525 31.2516 184.165 30.7716C183.885 30.8316 183.745 31.1016 183.745 31.5816C183.745 32.2416 183.935 32.8616 184.315 33.4416C184.695 34.0216 185.255 34.3116 185.995 34.3116ZM188.155 32.2416C188.195 32.1016 188.215 31.9416 188.215 31.7616C188.235 31.5616 188.245 31.4116 188.245 31.3116C188.225 30.4116 188.105 29.5216 187.885 28.6416C187.665 27.7616 187.445 26.8616 187.225 25.9416C186.865 26.5616 186.445 27.2316 185.965 27.9516C185.485 28.6716 185.035 29.2516 184.615 29.6916C184.935 30.2316 185.405 30.7416 186.025 31.2216C186.645 31.7016 187.355 32.0416 188.155 32.2416Z" fill="white"/>
</svg>
