<svg width="100" height="100" viewBox="0 0 100 100" fill="none" xmlns="http://www.w3.org/2000/svg">
<path d="M48.6292 47.9166C47.3792 46.9041 46.2542 45.7291 45.3 44.4291C44.2335 45.7334 43.0136 46.9043 41.6667 47.9166H48.6292ZM61.0125 52.0749C62.9125 53.7457 64.4292 55.8457 65.4084 58.2207L73.275 50.3582C74.8375 48.7953 76.9567 47.917 79.1667 47.9166H81.6084C83.8185 47.9166 85.9381 48.7945 87.5009 50.3574C89.0637 51.9202 89.9417 54.0398 89.9417 56.2499V81.2499C89.9417 83.46 89.0637 85.5797 87.5009 87.1425C85.9381 88.7053 83.8185 89.5832 81.6084 89.5832H79.1667C76.9567 89.5828 74.8375 88.7045 73.275 87.1416L65.4084 79.2791C64.1482 82.3287 62.0113 84.9358 59.2684 86.7701C56.5254 88.6044 53.2998 89.5835 50 89.5832H25C20.5798 89.5832 16.3405 87.8273 13.2149 84.7017C10.0893 81.5761 8.33337 77.3368 8.33337 72.9166V64.5832C8.33283 61.2932 9.3058 58.0765 11.1298 55.3383C12.9537 52.6002 15.5471 50.4629 18.5834 49.1957C15.8612 47.5879 13.5407 45.3817 11.7976 42.7442C10.0545 40.1066 8.93458 37.1069 8.52261 33.9724C8.11064 30.8379 8.41747 27.6507 9.41984 24.6523C10.4222 21.6539 12.0938 18.923 14.3081 16.6664C16.5223 14.4098 19.2211 12.6868 22.2 11.6278C25.1788 10.5688 28.3596 10.2017 31.5014 10.5542C34.6432 10.9068 37.6635 11.9697 40.3336 13.6626C43.0037 15.3554 45.2535 17.6337 46.9125 20.3249C49.0445 18.1122 51.6877 16.4573 54.6094 15.5059C57.5312 14.5546 60.6419 14.3358 63.6681 14.869C66.6942 15.4021 69.5429 16.6708 71.9636 18.5634C74.3843 20.456 76.3027 22.9145 77.5502 25.7226C78.7976 28.5307 79.3358 31.6024 79.1174 34.6673C78.899 37.7323 77.9306 40.6966 76.2976 43.2995C74.6646 45.9023 72.4169 48.0639 69.7523 49.5942C67.0877 51.1244 64.0878 51.9763 61.0167 52.0749H61.0125ZM29.1667 77.0832C30.2718 77.0832 31.3316 76.6443 32.113 75.8629C32.8944 75.0814 33.3334 74.0216 33.3334 72.9166C33.3334 71.8115 32.8944 70.7517 32.113 69.9703C31.3316 69.1889 30.2718 68.7499 29.1667 68.7499C28.0616 68.7499 27.0018 69.1889 26.2204 69.9703C25.439 70.7517 25 71.8115 25 72.9166C25 74.0216 25.439 75.0814 26.2204 75.8629C27.0018 76.6443 28.0616 77.0832 29.1667 77.0832ZM29.1667 43.7499C32.4819 43.7499 35.6613 42.4329 38.0055 40.0887C40.3497 37.7445 41.6667 34.5651 41.6667 31.2499C41.6667 27.9347 40.3497 24.7553 38.0055 22.4111C35.6613 20.0669 32.4819 18.7499 29.1667 18.7499C25.8515 18.7499 22.6721 20.0669 20.3279 22.4111C17.9837 24.7553 16.6667 27.9347 16.6667 31.2499C16.6667 34.5651 17.9837 37.7445 20.3279 40.0887C22.6721 42.4329 25.8515 43.7499 29.1667 43.7499V43.7499ZM60.4167 43.7499C63.1794 43.7499 65.8289 42.6524 67.7824 40.6989C69.7359 38.7454 70.8334 36.0959 70.8334 33.3332C70.8334 30.5706 69.7359 27.9211 67.7824 25.9675C65.8289 24.014 63.1794 22.9166 60.4167 22.9166C57.654 22.9166 55.0045 24.014 53.051 25.9675C51.0975 27.9211 50 30.5706 50 33.3332C50 36.0959 51.0975 38.7454 53.051 40.6989C55.0045 42.6524 57.654 43.7499 60.4167 43.7499V43.7499Z" fill="#66CCC1"/>
</svg>
