<svg width="64" height="49" viewBox="0 0 64 49" fill="none" xmlns="http://www.w3.org/2000/svg">
<path d="M31.7406 42.145C61.9112 42.2112 61.9357 31.1367 61.9999 2.06611" stroke="white" stroke-width="4" stroke-linecap="round"/>
<path d="M33.2091 6.0582C2.08872 5.99001 2.06424 17.0645 1.99999 46.1351" stroke="white" stroke-width="4" stroke-linecap="round"/>
<circle cx="33.1625" cy="23.99" r="20" fill="white"/>
<mask id="mask0_746_327" style="mask-type:alpha" maskUnits="userSpaceOnUse" x="13" y="3" width="41" height="41">
<circle cx="33.1625" cy="23.99" r="20" fill="#2F7889"/>
</mask>
<g mask="url(#mask0_746_327)">
<path d="M27.7579 37.6213C28.503 35.823 30.423 21.9137 30.4525 19.6413C30.4887 16.9277 30.34 14.3995 25.44 12.5047C21.1355 10.8367 17.1766 9.86674 12.6976 13.0278C9.2813 15.4385 7.7713 33.5927 8.62547 35.6273C8.93842 36.376 10.0075 37.1281 11.3505 37.8192C11.1353 40.0854 10.8668 43.1994 10.9132 44.248C10.9132 44.248 16.3392 46.0932 17.55 46.4326C19.5911 47.0026 20.4857 45.3622 20.7479 43.6016C20.855 42.8799 20.9338 41.9511 20.9941 41.103C23.303 41.4864 24.7594 41.1785 25.7952 40.3958C26.7172 39.6999 27.3314 38.6539 27.7579 37.6213V37.6213Z" fill="black"/>
<path d="M22.4371 38.7122C19.6058 37.8128 18.5285 36.9786 18.0162 35.9137C17.8272 35.52 17.8123 35.0659 18.036 34.6925C18.7809 33.4442 19.263 32.7195 19.6102 30.3335L21.4947 18.6872C22.4297 13.8362 18.994 11.7393 15.2548 12.1467C12.7037 12.4258 10.799 14.0711 10.2423 16.8914L7.75791 32.2374C7.44712 34.1543 7.76582 35.4008 8.59222 36.19C8.80727 36.5405 9.18927 36.8856 9.68342 37.2251C9.62314 38.3055 9.54261 39.8109 9.49176 41.0868C9.42158 42.8939 9.76315 43.7405 10.9145 44.2451C12.0658 44.7497 13.6981 44.4471 14.0213 42.5254C14.1845 41.5687 14.341 40.4724 14.4754 39.4723C15.9362 40.0135 17.2623 40.441 17.9222 40.6926C23.2595 42.7381 25.9096 41.1052 27.1437 38.8996C27.1412 38.9053 25.5966 39.7143 22.4371 38.7122V38.7122Z" fill="black"/>
<path d="M13.2369 17.9409C13.4149 17.9143 13.5755 17.8193 13.6842 17.6764C13.793 17.5334 13.8413 17.3538 13.8187 17.176C13.7962 16.9982 13.7046 16.8364 13.5636 16.7251C13.4227 16.6139 13.2435 16.5621 13.0645 16.5808L10.3508 16.9253L10.1126 18.3377L13.2369 17.9409ZM13.2937 20.5449C13.2708 20.3646 13.1769 20.2008 13.0326 20.0895C12.8884 19.9783 12.7056 19.9286 12.5245 19.9516L9.77865 20.299L9.54047 21.7114L12.6969 21.3116C13.0712 21.2639 13.3399 20.9205 13.2937 20.5449ZM12.7525 23.9186C12.7296 23.7382 12.6357 23.5744 12.4914 23.4632C12.3472 23.3519 12.1644 23.3023 11.9833 23.3252L9.20814 23.6769L8.96996 25.0893L12.1557 24.6853C12.5313 24.6346 12.8 24.2912 12.7525 23.9186V23.9186ZM12.2125 27.2893C12.1896 27.109 12.0957 26.9452 11.9515 26.8339C11.8072 26.7227 11.6245 26.6731 11.4433 26.696L8.63889 27.0519L8.40071 28.4643L11.6158 28.056C11.9929 28.0095 12.2587 27.6649 12.2125 27.2893V27.2893ZM11.6726 30.6601C11.6497 30.4798 11.5558 30.316 11.4115 30.2047C11.2673 30.0934 11.0845 30.0438 10.9034 30.0668L8.06964 30.4269L7.83146 31.8393L11.0787 31.4281C11.453 31.3803 11.7188 31.0356 11.6726 30.6601V30.6601Z" fill="white"/>
<path d="M21.5605 15.9455C20.0798 15.8363 16.6722 16.3617 16.6722 16.3617C16.4911 16.3848 16.3265 16.4785 16.2146 16.6222C16.1027 16.766 16.0526 16.9481 16.0755 17.1284C16.0988 17.3086 16.1929 17.4721 16.337 17.5832C16.4811 17.6944 16.6636 17.7442 16.8446 17.7218C16.8446 17.7218 20.1127 17.101 21.6057 17.407C22.734 17.6384 25.1583 18.6361 25.1583 18.6361L25.3594 17.2689C25.3578 17.2648 22.2585 15.9952 21.5605 15.9455ZM21.0866 19.4922C19.6074 19.3563 16.194 19.8176 16.194 19.8176C16.1042 19.8271 16.0171 19.8542 15.9378 19.8973C15.8586 19.9405 15.7886 19.9988 15.732 20.0689C15.6755 20.1391 15.6334 20.2197 15.6082 20.3061C15.583 20.3925 15.5753 20.483 15.5854 20.5723C15.6128 20.82 15.7701 21.0222 15.9801 21.1211C16.0879 21.1717 16.2154 21.1935 16.3412 21.1803C16.3412 21.1803 19.6193 20.622 21.1051 20.9521C22.2287 21.202 24.6597 22.1923 24.6597 22.1923L24.8862 20.8295C24.8862 20.8295 21.7853 19.5558 21.0866 19.4922V19.4922ZM20.6157 23.0401C19.138 22.8775 15.7186 23.2748 15.7186 23.2748C15.537 23.2917 15.3694 23.3794 15.2524 23.5189C15.1354 23.6583 15.0785 23.8381 15.0941 24.0191C15.111 24.1998 15.199 24.3665 15.3388 24.4828C15.4787 24.5992 15.6591 24.6557 15.8407 24.6401C15.8407 24.6401 19.1273 24.1402 20.6061 24.5014C21.7265 24.7738 24.1626 25.7527 24.1626 25.7527L24.4146 24.3942C24.4146 24.3942 21.3121 23.1164 20.6157 23.0401V23.0401ZM20.1447 26.588C18.6727 26.3971 15.2433 26.7319 15.2433 26.7319C15.1532 26.7383 15.0653 26.7623 14.9845 26.8026C14.9037 26.8429 14.8317 26.8987 14.7726 26.9667C14.7135 27.0347 14.6684 27.1137 14.64 27.1991C14.6116 27.2844 14.6003 27.3745 14.6069 27.4642C14.6232 27.7139 14.7751 27.9205 14.9812 28.0279C15.0878 28.0815 15.2128 28.1089 15.3402 28.0999C15.3402 28.0999 18.6339 27.6612 20.1083 28.0478C21.2228 28.3415 23.6697 29.3115 23.6697 29.3115L23.9472 27.9574C23.9443 27.9561 20.8389 26.677 20.1447 26.588ZM19.6737 30.1359C18.2032 29.9184 14.7667 30.192 14.7667 30.192C14.6763 30.1967 14.5877 30.2191 14.5059 30.258C14.4242 30.2968 14.351 30.3513 14.2904 30.4184C14.2298 30.4854 14.1831 30.5637 14.1529 30.6487C14.1226 30.7337 14.1096 30.8238 14.1144 30.9138C14.1277 31.1622 14.2742 31.3733 14.4791 31.4836C14.5844 31.54 14.7081 31.5703 14.8384 31.5625C14.8384 31.5625 18.1434 31.1835 19.6093 31.5971C20.719 31.9092 23.1726 32.8718 23.1726 32.8718L23.4728 31.5208C23.4728 31.5208 20.3658 30.2376 19.6737 30.1359V30.1359ZM30.4569 19.4997L28.4614 18.6251L28.2576 19.991L30.3621 20.9134C30.4149 20.5232 30.4344 19.6743 30.4569 19.4997ZM27.7634 23.5527L29.9522 24.5633C30.0176 24.0829 30.0674 23.6299 30.1207 23.1921L27.9726 22.1823L27.7634 23.5527V23.5527ZM27.2733 27.1127L29.4856 28.055C29.5532 27.5927 29.6107 27.1533 29.6745 26.6996L27.4838 25.7394L27.2733 27.1127ZM26.7804 30.6714L28.9509 31.6228C29.0234 31.1729 29.091 30.7106 29.164 30.2438L26.9935 29.2925L26.7804 30.6714ZM26.2862 34.2331L28.3476 35.1366C28.4255 34.713 28.5117 34.2554 28.5948 33.7658L26.5018 32.8484L26.2862 34.2331ZM23.3338 14.837C23.0331 14.0528 23.2634 13.409 22.408 12.368C21.4599 11.2111 19.8885 11.028 19.8885 11.028C19.8885 11.028 22.5425 11.1356 23.5444 12.0393C24.395 12.805 24.6418 13.8423 24.6004 14.586C24.5742 15.063 24.3479 15.2952 23.9685 15.3236C23.8509 15.3336 23.4916 15.2547 23.3338 14.837ZM25.8736 14.4437C25.833 12.67 24.4308 12.1204 24.4308 12.1204C24.4308 12.1204 25.9595 12.5547 26.4645 13.1176C27.0362 13.7542 27.2109 14.2886 27.1474 15.2138C27.1206 15.5915 26.949 16.1415 26.3415 15.9572C25.8112 15.7999 25.8854 14.9203 25.8736 14.4437V14.4437ZM28.183 15.3603C28.1601 13.7788 26.8909 13.161 26.8909 13.161C26.8909 13.161 29.3645 14.1017 29.2958 16.2306C29.2831 16.6076 29.0782 16.9927 28.7198 16.8731C28.1814 16.6953 28.1919 15.8356 28.183 15.3603V15.3603ZM14.4403 39.474C15.2992 39.4235 16.1208 39.0935 16.8749 38.6759C17.7181 38.2119 18.2851 37.8762 18.9074 37.1447C19.3808 36.5869 19.9121 35.5422 20.1385 34.8454C20.3879 34.0734 20.6377 33.7183 21.2331 33.8836C21.5991 33.9859 21.9071 34.4284 21.6146 35.3831C21.2818 36.467 20.9282 37.0875 20.0358 38.0184C19.2464 38.8407 18.3407 39.291 17.2534 39.6172C15.7782 40.0604 14.5677 39.4649 14.4403 39.474ZM17.9209 40.6955C17.9209 40.6955 21.8671 40.2388 22.9942 36.5719C23.1971 35.9127 23.4076 34.6556 24.2246 34.9009C24.5882 35.009 24.9829 35.5886 24.3953 37.0391C23.162 40.0787 21.0333 40.7512 20.2068 40.8911C19.0496 41.0809 17.9209 40.6955 17.9209 40.6955V40.6955Z" fill="white"/>
<path d="M20.9596 41.5525C20.9596 41.5525 22.8185 41.2878 24.0446 40.0214C24.6618 39.3867 25.0949 38.8113 25.5793 37.6093C25.8351 36.9699 25.8813 35.6271 26.6689 35.9621C27.3175 36.2395 27.0732 37.3793 26.8536 37.9834C26.4221 39.1743 25.4985 40.0984 24.3533 40.857C22.813 41.8729 20.9596 41.5525 20.9596 41.5525V41.5525Z" fill="white"/>
<path d="M16.0755 17.1285C16.0989 17.3086 16.1929 17.4721 16.337 17.5833C16.4811 17.6945 16.6636 17.7443 16.8447 17.7218C16.8447 17.7218 20.1127 17.1011 21.6057 17.407C21.6185 17.4092 21.637 17.4139 21.6497 17.4161C21.6691 16.8848 21.6286 16.3956 21.5366 15.9454C20.0422 15.8438 16.6722 16.3618 16.6722 16.3618C16.5824 16.3729 16.4957 16.4016 16.417 16.4462C16.3383 16.4908 16.2693 16.5504 16.2138 16.6217C16.1583 16.6929 16.1176 16.7744 16.0938 16.8614C16.0701 16.9484 16.0639 17.0392 16.0755 17.1285ZM16.194 19.8177C16.1042 19.8272 16.0172 19.8543 15.9379 19.8974C15.8586 19.9405 15.7886 19.9989 15.7321 20.069C15.6755 20.1392 15.6334 20.2198 15.6082 20.3062C15.5831 20.3926 15.5753 20.483 15.5854 20.5724C15.6129 20.8201 15.7702 21.0223 15.9801 21.1211C16.0879 21.1718 16.2154 21.1935 16.3413 21.1804C16.3413 21.1804 19.6165 20.6208 21.1051 20.9522C21.115 20.9531 21.1236 20.9569 21.1306 20.9565L21.3615 19.5375C21.2492 19.5122 21.1571 19.4958 21.0879 19.4894C19.6075 19.3563 16.194 19.8177 16.194 19.8177V19.8177ZM15.7187 23.2749C15.5371 23.2917 15.3695 23.3795 15.2524 23.5189C15.1354 23.6584 15.0785 23.8382 15.0941 24.0191C15.111 24.1999 15.199 24.3666 15.3388 24.4829C15.4787 24.5992 15.6591 24.6558 15.8408 24.6402C15.8408 24.6402 19.0604 24.1519 20.5592 24.4912L20.7901 23.0722C20.7218 23.0559 20.6638 23.0476 20.6186 23.0414C19.1393 22.8747 15.7187 23.2749 15.7187 23.2749V23.2749ZM15.2433 26.732C15.1532 26.7384 15.0653 26.7624 14.9845 26.8027C14.9038 26.843 14.8318 26.8987 14.7726 26.9668C14.7135 27.0348 14.6685 27.1138 14.64 27.1991C14.6116 27.2845 14.6004 27.3746 14.607 27.4643C14.6232 27.7139 14.7751 27.9206 14.9812 28.028C15.0878 28.0815 15.2128 28.109 15.3402 28.0999C15.3402 28.0999 18.4651 27.6863 19.9891 28.0229L20.2184 26.5998C20.1929 26.5955 20.1674 26.5911 20.1447 26.588C18.6727 26.3972 15.2433 26.732 15.2433 26.732V26.732ZM19.6454 30.1303C18.1612 29.9205 14.768 30.1892 14.768 30.1892C14.6776 30.1939 14.589 30.2163 14.5072 30.2552C14.4255 30.294 14.3523 30.3485 14.2917 30.4156C14.2311 30.4826 14.1843 30.5609 14.1541 30.6459C14.1239 30.7309 14.1109 30.821 14.1157 30.911C14.129 31.1594 14.2755 31.3705 14.4804 31.4808C14.5857 31.5372 14.7094 31.5675 14.8397 31.5597C14.8397 31.5597 17.7395 31.2285 19.3122 31.525C19.4211 31.132 19.5214 30.7353 19.616 30.3361L19.6454 30.1303V30.1303Z" fill="white"/>
<path d="M21.3329 15.6544C20.9188 13.8571 20.2934 13.9144 19.7412 13.3034C19.2541 12.762 19.7348 12.5593 20.0808 12.5367C20.5794 12.5025 21.3548 12.8184 21.742 13.3297C22.1053 13.8101 22.5163 14.2908 22.201 15.5908C22.0762 16.1203 21.4231 16.039 21.3329 15.6544V15.6544ZM22.7849 18.5762C22.8447 17.9226 22.4799 17.5543 21.8666 17.4837C21.5826 17.4515 21.4613 17.6169 21.3981 18.2007C21.2824 19.2671 21.2472 19.5864 21.8331 19.6724C22.3314 19.7473 22.719 19.3057 22.7849 18.5762ZM21.5318 21.0571C21.1266 20.9888 20.9536 21.1316 20.8783 21.8126C20.7905 22.6145 21.2425 22.693 21.4459 22.7139C21.7579 22.7447 22.1331 22.5402 22.2682 22.0494C22.3395 21.7801 22.4129 21.2041 21.5318 21.0571V21.0571Z" fill="white"/>
<path d="M14.4403 39.474C14.4514 39.472 14.4727 39.4779 14.4969 39.4851C14.4854 39.4801 14.474 39.4751 14.4613 39.4729C14.4556 39.4704 14.4502 39.4749 14.4403 39.474Z" fill="white"/>
<path d="M20.0387 38.0197C20.0962 37.9595 20.1442 37.9054 20.1976 37.8468C19.6852 37.5949 19.2824 37.3432 18.9592 37.082L18.9103 37.146C18.2867 37.8804 17.721 38.2132 16.8778 38.6772C16.1291 39.0903 15.3158 39.4171 14.4642 39.4743C14.4757 39.4793 14.4872 39.4843 14.4999 39.4865C14.7748 39.5626 15.9043 40.0235 17.2563 39.6185C18.3436 39.2923 19.2493 38.842 20.0387 38.0197V38.0197ZM23.2958 38.9485C23.0229 38.8835 22.741 38.8078 22.4399 38.7134C22.2601 38.6551 22.0888 38.6005 21.923 38.5415C20.3314 40.4163 17.9209 40.6955 17.9209 40.6955C17.9209 40.6955 19.0496 41.0809 20.208 40.8883C20.8199 40.7841 22.1454 40.3846 23.2958 38.9485V38.9485Z" fill="white"/>
<path d="M20.9596 41.5524C20.9596 41.5524 21.199 41.5924 21.5702 41.598C21.3952 41.5828 21.2174 41.5663 21.0335 41.5404C20.986 41.5469 20.9596 41.5524 20.9596 41.5524V41.5524Z" fill="white"/>
<path d="M24.3504 40.8558C25.0884 40.3662 25.7332 39.8084 26.2158 39.1523C25.8418 39.207 25.3541 39.2323 24.7517 39.1835C24.5358 39.4852 24.3096 39.7481 24.0458 40.0186C22.9602 41.1381 21.3828 41.4716 21.0347 41.5376C21.2186 41.5636 21.3965 41.58 21.5715 41.5952C22.2426 41.6127 23.3605 41.5116 24.3504 40.8558Z" fill="white"/>
</g>
</svg>
