<svg width="100" height="100" viewBox="0 0 100 100" fill="none" xmlns="http://www.w3.org/2000/svg">
<path d="M68.1667 58.3333C68.5 55.5833 68.75 52.8333 68.75 49.9999C68.75 47.1666 68.5 44.4166 68.1667 41.6666H82.25C82.9167 44.3333 83.3334 47.1249 83.3334 49.9999C83.3334 52.8749 82.9167 55.6666 82.25 58.3333M60.7917 81.4999C63.2917 76.8749 65.2084 71.8749 66.5417 66.6666H78.8334C74.7966 73.6177 68.3922 78.8832 60.7917 81.4999M59.75 58.3333H40.25C39.8334 55.5833 39.5834 52.8333 39.5834 49.9999C39.5834 47.1666 39.8334 44.3749 40.25 41.6666H59.75C60.125 44.3749 60.4167 47.1666 60.4167 49.9999C60.4167 52.8333 60.125 55.5833 59.75 58.3333ZM50 83.1666C46.5417 78.1666 43.75 72.6249 42.0417 66.6666H57.9584C56.25 72.6249 53.4584 78.1666 50 83.1666ZM33.3334 33.3333H21.1667C25.1619 26.3633 31.5617 21.0894 39.1667 18.4999C36.6667 23.1249 34.7917 28.1249 33.3334 33.3333ZM21.1667 66.6666H33.3334C34.7917 71.8749 36.6667 76.8749 39.1667 81.4999C31.5776 78.8819 25.1869 73.6154 21.1667 66.6666M17.75 58.3333C17.0834 55.6666 16.6667 52.8749 16.6667 49.9999C16.6667 47.1249 17.0834 44.3333 17.75 41.6666H31.8334C31.5 44.4166 31.25 47.1666 31.25 49.9999C31.25 52.8333 31.5 55.5833 31.8334 58.3333M50 16.7916C53.4584 21.7916 56.25 27.3749 57.9584 33.3333H42.0417C43.75 27.3749 46.5417 21.7916 50 16.7916M78.8334 33.3333H66.5417C65.2376 28.1727 63.3066 23.1912 60.7917 18.4999C68.4584 21.1249 74.8334 26.4166 78.8334 33.3333ZM50 8.33325C26.9584 8.33325 8.33337 27.0833 8.33337 49.9999C8.33337 61.0506 12.7232 71.6487 20.5373 79.4627C24.4064 83.3318 28.9997 86.401 34.0549 88.4949C39.1101 90.5888 44.5283 91.6666 50 91.6666C61.0507 91.6666 71.6488 87.2767 79.4628 79.4627C87.2768 71.6487 91.6667 61.0506 91.6667 49.9999C91.6667 44.5282 90.589 39.11 88.495 34.0548C86.4011 28.9995 83.3319 24.4062 79.4628 20.5371C75.5937 16.668 71.0004 13.5989 65.9452 11.5049C60.89 9.41099 55.4718 8.33325 50 8.33325V8.33325Z" fill="#66CCC1"/>
</svg>
