<svg width="100" height="100" viewBox="0 0 100 100" fill="none" xmlns="http://www.w3.org/2000/svg">
<path d="M33.75 25.1563C33.75 27.0313 32.1875 28.5937 30.3125 28.5937H15.1562C13.2812 28.5937 11.7188 27.0313 11.7188 25.1563V20.9375C11.7188 19.0625 13.2812 17.5 15.1562 17.5H30.3125C32.1875 17.5 33.75 19.0625 33.75 20.9375V25.1563M94.8438 24.8437C94.8438 25.7812 94.0625 26.7188 92.9688 26.7188H84.8437C83.9062 26.7188 82.9687 25.9375 82.9687 24.8437V22.6563C82.9687 21.7188 83.75 20.7813 84.8437 20.7813H92.9688C93.9063 20.7813 94.8438 21.5625 94.8438 22.6563V24.8437ZM100 78.5937C100 83.2812 96.25 87.0312 91.5625 87.0312H8.4375C3.75 87.0312 0 83.2812 0 78.5937V76.0938H100V78.5937Z" fill="#8C9AA4"/>
<path d="M0 31.4063C0 26.7188 3.75 22.9688 8.4375 22.9688H91.4062C96.0938 22.9688 99.8438 26.7188 99.8438 31.4063V33.9063H0V31.4063Z" fill="#212528"/>
<path d="M0 33.5938H100V77.8125H0V33.5938Z" fill="#8C9AA4"/>
<path d="M85.4687 28.125H35.3125L40.3125 11.25C40.7812 10.3125 42.8125 8.75 44.0625 8.4375C51.7188 6.25 68.9062 6.25 76.5625 8.4375C77.8125 8.75 79.8438 10.3125 80.3125 11.25L85.4687 28.125Z" fill="#212528"/>
<path d="M82.9687 46.25H37.6562L42.1875 23.4375C42.5 22.1875 44.5313 20.1562 45.625 19.6875C52.5 16.875 68.125 16.875 75 19.6875C76.0937 20.1562 77.9688 22.1875 78.4375 23.4375L82.9687 46.25Z" fill="#636C72"/>
<path d="M94.6875 58.75C94.6875 77.8125 79.2187 93.125 60.3125 93.125C41.4062 93.125 25.9375 77.8125 25.9375 58.75C25.9375 39.8437 41.4062 24.375 60.3125 24.375C79.375 24.375 94.6875 39.8437 94.6875 58.75Z" fill="#788287"/>
<path d="M90.9375 58.75C90.9375 75.625 77.1875 89.375 60.3125 89.375C43.4375 89.375 29.6875 75.625 29.6875 58.75C29.6875 41.875 43.4375 28.125 60.3125 28.125C77.1875 28.2813 90.9375 41.875 90.9375 58.75Z" fill="#212528"/>
<path d="M60.3125 83.5938C74.0333 83.5938 85.1562 72.4708 85.1562 58.75C85.1562 45.0292 74.0333 33.9062 60.3125 33.9062C46.5917 33.9062 35.4688 45.0292 35.4688 58.75C35.4688 72.4708 46.5917 83.5938 60.3125 83.5938Z" fill="#336963"/>
<path d="M60.3125 72.1875C67.7338 72.1875 73.75 66.1713 73.75 58.75C73.75 51.3287 67.7338 45.3125 60.3125 45.3125C52.8912 45.3125 46.875 51.3287 46.875 58.75C46.875 66.1713 52.8912 72.1875 60.3125 72.1875Z" fill="#212528"/>
<path opacity="0.5" d="M78.5937 48.2813C78.5937 52.5 75.1563 55.9375 70.9375 55.9375C66.7188 55.9375 63.2812 52.5 63.2812 48.2813C63.2812 44.0625 66.7188 40.625 70.9375 40.625C75.1563 40.4688 78.5937 44.0625 78.5937 48.2813Z" fill="#F5F5F5"/>
<path opacity="0.5" d="M55.625 68.4375C58.3001 68.4375 60.4688 66.2689 60.4688 63.5938C60.4688 60.9186 58.3001 58.75 55.625 58.75C52.9499 58.75 50.7812 60.9186 50.7812 63.5938C50.7812 66.2689 52.9499 68.4375 55.625 68.4375Z" fill="#F5F5F5"/>
<path opacity="0.5" d="M47.0312 75.1562C48.6708 75.1562 50 73.8271 50 72.1875C50 70.5479 48.6708 69.2188 47.0312 69.2188C45.3917 69.2188 44.0625 70.5479 44.0625 72.1875C44.0625 73.8271 45.3917 75.1562 47.0312 75.1562Z" fill="#F5F5F5"/>
<path d="M23.4375 70.7812C23.4375 72.6562 21.875 74.2187 20 74.2187H5.625C3.75 74.2187 2.1875 72.6562 2.1875 70.7812V40.4687C2.1875 38.5937 3.75 37.0312 5.625 37.0312H20C21.875 37.0312 23.4375 38.5937 23.4375 40.4687V70.7812Z" fill="#212528"/>
<path d="M15.7813 34.0625C18.5427 34.0625 20.7812 31.8239 20.7812 29.0625C20.7812 26.3011 18.5427 24.0625 15.7813 24.0625C13.0198 24.0625 10.7812 26.3011 10.7812 29.0625C10.7812 31.8239 13.0198 34.0625 15.7813 34.0625Z" fill="#636C72"/>
</svg>
