<svg width="92" height="92" viewBox="0 0 92 92" fill="none" xmlns="http://www.w3.org/2000/svg">
<path fill-rule="evenodd" clip-rule="evenodd" d="M0.166626 46.0001C0.166626 20.6876 20.6875 0.166748 46 0.166748C71.3125 0.166748 91.8333 20.6876 91.8333 46.0001C91.8333 71.3126 71.3125 91.8334 46 91.8334C20.6875 91.8334 0.166626 71.3126 0.166626 46.0001ZM57.6666 35.1667C57.0036 34.2827 56.0165 33.6982 54.9225 33.542C53.8286 33.3857 52.7173 33.6704 51.8333 34.3334C50.9492 34.9965 50.3648 35.9835 50.2085 37.0775C50.0522 38.1715 50.3369 39.2827 51 40.1667L55.375 46.0001L51 51.8334C50.3369 52.7175 50.0522 53.8287 50.2085 54.9227C50.3648 56.0166 50.9492 57.0037 51.8333 57.6667C52.7173 58.3298 53.8286 58.6145 54.9225 58.4582C56.0165 58.3019 57.0036 57.7175 57.6666 56.8334L60.5833 52.9459L63.5 56.8334C64.163 57.7175 65.1501 58.3019 66.244 58.4582C66.7857 58.5356 67.3373 58.5055 67.8674 58.3697C68.3974 58.2339 68.8956 57.9951 69.3333 57.6667C69.771 57.3384 70.1398 56.9271 70.4186 56.4563C70.6974 55.9855 70.8807 55.4643 70.9581 54.9227C71.0355 54.381 71.0054 53.8294 70.8696 53.2993C70.7338 52.7693 70.4949 52.2712 70.1666 51.8334L65.7916 46.0001L70.1666 40.1667C70.8297 39.2827 71.1144 38.1715 70.9581 37.0775C70.8018 35.9835 70.2173 34.9965 69.3333 34.3334C68.8956 34.0051 68.3974 33.7662 67.8674 33.6304C67.3373 33.4946 66.7857 33.4646 66.244 33.542C65.1501 33.6982 64.163 34.2827 63.5 35.1667L60.5833 39.0542L57.6666 35.1667ZM29.3333 37.6667C29.3333 36.5617 28.8943 35.5019 28.1129 34.7205C27.3315 33.9391 26.2717 33.5001 25.1666 33.5001C24.0616 33.5001 23.0017 33.9391 22.2203 34.7205C21.4389 35.5019 21 36.5617 21 37.6667V46.0001C21 48.0542 21.5833 51.0459 23.45 53.6417C25.475 56.4584 28.8083 58.5001 33.5 58.5001C38.1916 58.5001 41.525 56.4501 43.55 53.6417C45.4166 51.0459 46 48.0584 46 46.0001V37.6667C46 36.5617 45.561 35.5019 44.7796 34.7205C43.9982 33.9391 42.9384 33.5001 41.8333 33.5001C40.7282 33.5001 39.6684 33.9391 38.887 34.7205C38.1056 35.5019 37.6666 36.5617 37.6666 37.6667V46.0001C37.6666 46.7209 37.4166 47.9001 36.7833 48.7751C36.3083 49.4376 35.475 50.1667 33.5 50.1667C31.525 50.1667 30.6916 49.4376 30.2166 48.7751C29.662 47.954 29.3553 46.9907 29.3333 46.0001V37.6667Z" fill="#66CCC1"/>
</svg>
