<svg width="100" height="100" viewBox="0 0 100 100" fill="none" xmlns="http://www.w3.org/2000/svg">
<g clip-path="url(#clip0_2104_18)">
<path d="M48.5938 84.375L24.5312 15.9375C24.5312 15.9375 81.875 2.03129 81.875 31.5625V75.4688C81.875 76.7188 80.3125 78.2813 79.0625 78.2813L48.5938 84.375Z" fill="#8C9AA4"/>
<path d="M10.3125 84.375C9.0625 84.375 7.5 82.8125 7.5 81.5625V37.6562C7.5 8.125 51.4063 8.125 51.4063 37.6562V81.5625C51.4063 82.8125 49.8437 84.375 48.5937 84.375H10.3125Z" fill="#212528"/>
<path d="M40.9375 69.375C39.375 69.375 38.125 70.625 38.125 72.1875C38.125 73.75 39.375 75 40.9375 75C42.5 75 43.75 73.75 43.75 72.1875C43.75 70.625 42.5 69.375 40.9375 69.375Z" fill="#ED4C5C"/>
<path d="M17.3438 87.1875C16.5625 87.1875 15.9375 86.5625 15.9375 85.7813V82.8125C15.9375 82.0313 16.5625 81.4062 17.3438 81.4062H41.5625C42.3438 81.4062 42.9687 82.0313 42.9687 82.8125V85.7813C42.9687 86.5625 42.3438 87.1875 41.5625 87.1875H17.3438Z" fill="#788287"/>
<path d="M49.0625 38.9062C49.0625 51.0938 39.8437 62.8125 23.125 62.8125C10.9375 62.8125 9.0625 35 9.0625 22.8125C9.0625 22.8125 15.9375 16.7188 26.875 16.7188C39.2188 16.7188 49.0625 26.7187 49.0625 38.9062" fill="#3E4347"/>
<path d="M22.0312 62.8125C34.1988 62.8125 44.0625 52.9488 44.0625 40.7812C44.0625 28.6137 34.1988 18.75 22.0312 18.75C9.86373 18.75 0 28.6137 0 40.7812C0 52.9488 9.86373 62.8125 22.0312 62.8125Z" fill="#788287"/>
<path d="M41.7188 40.7813C41.7188 51.5625 32.9688 60.4688 22.0312 60.4688C11.25 60.3125 2.5 51.5625 2.5 40.7813C2.5 30 11.25 21.0938 22.1875 21.0938C32.9687 21.0938 41.7188 29.8438 41.7188 40.7813Z" fill="#212528"/>
<path d="M22.0313 56.7188C30.8333 56.7188 37.9688 49.5833 37.9688 40.7813C37.9688 31.9792 30.8333 24.8438 22.0313 24.8438C13.2292 24.8438 6.09375 31.9792 6.09375 40.7813C6.09375 49.5833 13.2292 56.7188 22.0313 56.7188Z" fill="#336963"/>
<path d="M22.0312 49.375C26.7774 49.375 30.625 45.5274 30.625 40.7812C30.625 36.0351 26.7774 32.1875 22.0312 32.1875C17.2851 32.1875 13.4375 36.0351 13.4375 40.7812C13.4375 45.5274 17.2851 49.375 22.0312 49.375Z" fill="#212528"/>
<path opacity="0.5" d="M33.75 33.9063C33.75 36.5625 31.5625 38.9062 28.75 38.9062C26.0937 38.9062 23.75 36.7188 23.75 33.9063C23.75 31.25 25.9375 28.9062 28.75 28.9062C31.5625 28.9062 33.75 31.25 33.75 33.9063Z" fill="#F5F5F5"/>
<path opacity="0.5" d="M19.0625 46.875C20.7884 46.875 22.1875 45.4759 22.1875 43.75C22.1875 42.0241 20.7884 40.625 19.0625 40.625C17.3366 40.625 15.9375 42.0241 15.9375 43.75C15.9375 45.4759 17.3366 46.875 19.0625 46.875Z" fill="#F5F5F5"/>
<path opacity="0.5" d="M13.4375 51.25C14.473 51.25 15.3125 50.4105 15.3125 49.375C15.3125 48.3395 14.473 47.5 13.4375 47.5C12.402 47.5 11.5625 48.3395 11.5625 49.375C11.5625 50.4105 12.402 51.25 13.4375 51.25Z" fill="#F5F5F5"/>
<path d="M80 31.8749C80 34.2187 78.75 36.4062 77.0312 36.8749C75 37.4999 73.125 35.6249 73.125 32.6562C73.125 29.6874 75 27.4999 77.0312 27.6562C78.75 27.4999 80 29.5312 80 31.8749ZM70.7812 36.0937C70.7812 37.0312 69.6875 38.1249 68.125 38.4374C66.4062 38.7499 65 38.2812 65 37.1874C65 36.0937 66.4062 34.9999 68.125 34.6874C69.6875 34.3749 70.7812 34.9999 70.7812 36.0937M70.625 31.0937C70.625 32.0312 69.5313 33.1249 67.9688 33.4374C66.25 33.7499 64.8438 33.2812 64.8438 32.1874C64.8438 31.0937 66.25 29.9999 67.9688 29.6874C69.375 29.5312 70.625 30.1562 70.625 31.0937M57.5 43.7499L80.4688 37.3437V52.6562L57.5 43.7499Z" fill="#212528"/>
<path d="M58.9063 82.0312C58.125 82.0312 57.5 81.4062 57.5 80.625V43.75C57.5 42.9687 58.125 42.3438 58.9063 42.3438H92.0313C102.813 42.3438 102.813 82.0312 92.0313 82.0312H58.9063ZM53.2812 49.5313C53.2812 48.75 53.9063 48.2812 54.5313 48.2812H56.25C57.0313 48.2812 57.5 48.9063 57.5 49.5313V75.1562C57.5 75.9375 56.875 76.4063 56.25 76.4063H54.5313C53.9063 76.4063 53.2812 75.7812 53.2812 75.1562V49.5313Z" fill="#212528"/>
<path d="M60.3125 45.1562H92.9688V79.2187H60.3125V45.1562Z" fill="#788287"/>
</g>
<defs>
<clipPath id="clip0_2104_18">
<rect width="100" height="100" fill="white"/>
</clipPath>
</defs>
</svg>
